<?xml version="1.0" encoding="UTF-8" standalone="no"?>
<svg
   xmlns:dc="http://purl.org/dc/elements/1.1/"
   xmlns:cc="http://creativecommons.org/ns#"
   xmlns:rdf="http://www.w3.org/1999/02/22-rdf-syntax-ns#"
   xmlns:svg="http://www.w3.org/2000/svg"
   xmlns="http://www.w3.org/2000/svg"
   xmlns:sodipodi="http://sodipodi.sourceforge.net/DTD/sodipodi-0.dtd"
   xmlns:inkscape="http://www.inkscape.org/namespaces/inkscape"
   inkscape:version="1.0 (4035a4f, 2020-05-01)"
   sodipodi:docname="StockMonitor_2.svg"
   id="svg25"
   version="1.1"
   viewBox="0 0 50.617494 39.617604"
   height="39.618"
   width="50.618">
  <metadata
     id="metadata29">
    <rdf:RDF>
      <cc:Work
         rdf:about="">
        <dc:format>image/svg+xml</dc:format>
        <dc:type
           rdf:resource="http://purl.org/dc/dcmitype/StillImage" />
        <dc:title></dc:title>
      </cc:Work>
    </rdf:RDF>
  </metadata>
  <sodipodi:namedview
     scale-x="1.09999"
     inkscape:current-layer="svg25"
     inkscape:window-maximized="0"
     inkscape:window-y="23"
     inkscape:window-x="0"
     inkscape:cy="31.82628"
     inkscape:cx="34.777989"
     inkscape:zoom="8.8963668"
     showgrid="false"
     id="namedview27"
     inkscape:window-height="777"
     inkscape:window-width="1180"
     inkscape:pageshadow="2"
     inkscape:pageopacity="0"
     guidetolerance="10"
     gridtolerance="10"
     objecttolerance="10"
     borderopacity="1"
     bordercolor="#666666"
     pagecolor="#ffffff"
     inkscape:document-rotation="0" />
  <defs
     id="defs15">
    <linearGradient
       gradientUnits="userSpaceOnUse"
       x2="264.79001"
       x1="459.34"
       id="a">
      <stop
         id="stop10"
         offset="0" />
      <stop
         id="stop12"
         offset="1"
         stop-opacity="0" />
    </linearGradient>
  </defs>
  <g
     id="g23"
     transform="matrix(0.21274205,0,0,0.22269,-53.255812,-77.970218)">
    <path
       id="path17"
       stroke-width="3"
       stroke="#000000"
       fill="none"
       d="M 245.05,520.49 H 491.77" />
    <path
       id="path19"
       stroke-width="3"
       stroke="#000000"
       fill="none"
       d="M 253.51,532 V 352.71" />
    <path
       style="fill:url(#a)"
       id="path21"
       fill="url(#a)"
       d="m 448.06,411.1 -31.016,55.104 -32.426,-31.253 -39.475,46.057 -33.836,-27.963 -46.524,57.571 46.524,-65.796 35.245,24.673 38.065,-46.057 31.016,21.384 21.147,-41.122 -19.033,-2.4674 40.18,-17.271 1.4098,41.945 -11.279,-14.804 z" />
  </g>
  <path
     id="path46"
     d="m 37.573708,18.96283 c 0.0044,-2.394301 0.02718,-2.699592 0.228849,-3.067947 l 0.223951,-0.409059 0.0049,2.723127 c 0.004,2.219392 -0.02808,2.786915 -0.173414,3.067947 -0.09807,0.18965 -0.203259,0.344818 -0.233748,0.344818 -0.03048,0 -0.05324,-1.196498 -0.05053,-2.658886 z"
     style="fill:#ff0000;stroke-width:0.116874" />
  <path
     id="path48"
     d="m 38.863529,16.537691 c 0.0073,-2.472856 0.03386,-2.860333 0.224644,-3.272476 l 0.216412,-0.467496 0.0086,2.88981 c 0.0081,2.690909 -0.0074,2.916149 -0.224644,3.272476 L 38.85526,19.34267 Z"
     style="fill:#ff0000;stroke-width:0.116874" />
  <path
     id="path50"
     d="m 38.391827,17.385028 c 0.0045,-2.451901 0.02677,-2.757279 0.228849,-3.126383 l 0.223951,-0.409059 0.0049,2.781565 c 0.004,2.271756 -0.02778,2.844764 -0.173414,3.126384 -0.09807,0.189649 -0.203259,0.344818 -0.233748,0.344818 -0.03048,0 -0.05324,-1.222796 -0.05054,-2.717325 z"
     style="fill:#ff0000;stroke-width:0.116874" />
  <path
     id="path52"
     d="m 38.041062,18.115492 c 0.0027,-2.14049 0.03984,-2.811016 0.168117,-3.038728 0.145913,-0.259028 0.168652,0.0146 0.200388,2.411179 0.03185,2.405261 0.01331,2.740346 -0.168117,3.038728 -0.197642,0.325048 -0.203806,0.250881 -0.200388,-2.411179 z"
     style="fill:#ff0000;stroke-width:0.116874" />
  <path
     id="path54"
     d="m 39.330204,15.602698 c 0,-2.318589 0.03449,-2.98218 0.167028,-3.214039 0.148126,-0.259119 0.167028,0.03848 0.167028,2.629668 0,2.31859 -0.03449,2.98218 -0.167028,3.21404 -0.148126,0.259118 -0.167028,-0.03848 -0.167028,-2.629669 z"
     style="fill:#ff0000;stroke-width:0.116874" />
  <path
     id="path56"
     d="m 39.671505,15.427387 c -0.0012,-1.317756 -0.03508,-3.139639 -0.07518,-4.04863 -0.07057,-1.5994917 -0.06498,-1.6569611 0.17387,-1.7847865 l 0.24679,-0.132077 0.03231,3.8451835 c 0.0293,3.486567 0.0133,3.876475 -0.171601,4.180706 -0.198291,0.32627 -0.203977,0.269447 -0.206183,-2.060396 z"
     style="fill:#ff0000;stroke-width:0.116874" />
  <path
     id="path58"
     d="m 40.116984,13.263702 c -0.04012,-3.2659446 -0.0231,-3.757568 0.134656,-3.8896408 0.162119,-0.1357214 0.183747,0.2142592 0.211499,3.4224588 0.0251,2.901799 -2.14e-4,3.633047 -0.134657,3.88964 -0.146756,0.280095 -0.170788,-0.108787 -0.211498,-3.422458 z"
     style="fill:#ff0000;stroke-width:0.116874" />
  <path
     id="path60"
     d="m 40.216238,15.350768 c -0.118982,-1.944606 -0.09275,-5.6261897 0.04068,-5.7086517 0.07692,-0.047548 0.116874,1.1285707 0.116874,3.4408907 0,1.932216 -0.01831,3.513122 -0.04068,3.513122 -0.02237,0 -0.07497,-0.560413 -0.116874,-1.245361 z"
     style="fill:#ff0000;stroke-width:0.116874" />
  <path
     id="path62"
     d="m 40.061517,11.862725 c 5.18e-4,-0.449965 0.02165,-0.61972 0.04695,-0.377234 0.0253,0.242487 0.02488,0.61064 -9.44e-4,0.818119 -0.02582,0.207479 -0.04652,0.009 -0.046,-0.440885 z"
     style="fill:#ff0000;stroke-width:0.116874" />
  <path
     id="path64"
     d="m 40.495561,12.7685 c -0.0027,-1.944494 0.01709,-3.5354431 0.04398,-3.5354431 0.02689,0 0.13207,-0.031921 0.233748,-0.070943 0.165873,-0.063654 0.184367,0.257614 0.179972,3.1263841 -0.0045,2.925014 -0.02398,3.232164 -0.22885,3.606384 l -0.223951,0.40906 z"
     style="fill:#ff0000;stroke-width:0.116874" />
  <path
     id="path66"
     d="m 40.9623,12.25507 c -0.0035,-2.766564 0.02105,-3.2404189 0.17117,-3.2980266 0.153097,-0.058746 0.174787,0.3136172 0.17117,2.9385686 -0.0033,2.385551 -0.03861,3.066137 -0.17117,3.298026 -0.147874,0.25868 -0.167502,-0.07829 -0.17117,-2.938568 z"
     style="fill:#ff0000;stroke-width:0.116874" />
  <path
     id="path68"
     d="m 41.341742,11.805835 c 0.02337,-2.7322558 0.0424,-2.9819998 0.230007,-3.0180793 0.189972,-0.036537 0.204181,0.1463507 0.199631,2.5696843 -0.0044,2.350585 -0.0272,2.649539 -0.230007,3.018079 l -0.225106,0.40906 z"
     style="fill:#ff0000;stroke-width:0.116874" />
  <path
     id="path70"
     d="m 41.779832,11.307574 c -0.002,-1.4623882 0.01844,-2.6588877 0.04532,-2.6588877 0.02689,0 0.132071,-0.031921 0.233748,-0.070942 0.165152,-0.063373 0.184871,0.2053901 0.184871,2.5196927 0,1.584228 -0.04261,2.564296 -0.109691,2.52284 -0.06033,-0.03729 -0.163918,0.02535 -0.230195,0.139195 -0.08535,0.146619 -0.12154,-0.568486 -0.124057,-2.451899 z"
     style="fill:#ff0000;stroke-width:0.116874" />
  <path
     id="path72"
     d="m 42.448304,13.994825 c -0.179426,-0.273993 -0.204529,-0.634047 -0.204529,-2.933603 0,-2.3236886 0.0218,-2.6296418 0.192038,-2.6949676 0.105622,-0.04053 0.211729,-0.054005 0.235793,-0.029945 0.02406,0.02406 0.02969,1.3773462 0.01249,3.0072956 -0.03027,2.869014 -0.03778,2.95358 -0.235792,2.651215 z"
     style="fill:#ff0000;stroke-width:0.116874" />
  <path
     id="path74"
     d="m 42.974238,14.712347 c -0.254844,-0.409794 -0.262966,-0.515261 -0.262966,-3.414457 0,-2.9129366 0.0064,-2.9950326 0.243758,-3.1220574 0.134067,-0.071753 0.266345,-0.1078684 0.293951,-0.080259 0.02761,0.027605 0.03625,1.6228168 0.0192,3.5449134 l -0.03098,3.494718 z"
     style="fill:#ff0000;stroke-width:0.116874" />
  <path
     id="path76"
     d="m 43.366584,15.242517 c -0.125315,-0.326563 -0.08143,-7.295076 0.04594,-7.295076 0.07549,0 0.116875,1.3245744 0.116875,3.739973 0,2.056985 -0.02067,3.739973 -0.04594,3.739973 -0.02527,0 -0.07786,-0.08319 -0.116873,-0.18487 z"
     style="fill:#ff0000;stroke-width:0.116874" />
  <path
     id="path78"
     d="m 43.674378,15.662721 c -0.107642,-0.172363 -0.144987,-1.207733 -0.144987,-4.019654 0,-3.2588435 0.02447,-3.7968815 0.175311,-3.8547647 0.153772,-0.059006 0.175311,0.4348465 0.175311,4.0196547 0,2.247809 -0.01364,4.086926 -0.03032,4.086926 -0.01668,0 -0.09556,-0.104473 -0.175311,-0.232162 z"
     style="fill:#ff0000;stroke-width:0.116874" />
  <path
     id="path80"
     d="m 44.055324,16.245506 c -0.175817,-0.263725 -0.272821,-8.5320058 -0.100097,-8.5318966 0.178462,1.123e-4 0.302081,3.0449506 0.253863,6.2528506 -0.02535,1.686363 -0.07346,2.3995 -0.153766,2.279046 z"
     style="fill:#ff0000;stroke-width:0.116874" />
  <path
     id="path82"
     d="m 39.205047,10.823363 c 0,-0.76412 0.03875,-0.9957959 0.175311,-1.0481996 0.147802,-0.056719 0.175311,0.097207 0.175311,0.9809256 0,0.853816 -0.03251,1.0482 -0.175311,1.0482 -0.141908,0 -0.175311,-0.186909 -0.175311,-0.980926 z"
     style="fill:#ff0000;stroke-width:0.116874" />
  <path
     id="path84"
     d="m 38.73755,10.931844 c 0,-0.752828 0.03205,-0.889596 0.233749,-0.9975419 0.225262,-0.1205565 0.233748,-0.088878 0.233748,0.8724439 0,0.919626 -0.01826,0.997543 -0.233748,0.997543 -0.212873,0 -0.233749,-0.07792 -0.233749,-0.872445 z"
     style="fill:#ff0000;stroke-width:0.116874" />
  <path
     id="path86"
     d="m 37.942818,11.016523 c 0.02765,-0.529213 0.07824,-0.67911 0.23958,-0.709814 0.176612,-0.03361 0.204529,0.05797 0.204529,0.670891 0,0.637658 -0.02435,0.709814 -0.23958,0.709814 -0.217772,0 -0.23639,-0.06108 -0.204529,-0.670891 z"
     style="fill:#ff0000;stroke-width:0.116874" />
  <path
     transform="matrix(1.0397553,0,0,1.0397553,-1.6424635,0)"
     id="path88"
     d=""
     style="fill:#ff0000;stroke-width:0.112405" />
  <path
     id="path90"
     d="m 38.386927,10.940236 c 0,-0.556343 0.04477,-0.764359 0.175312,-0.81445 0.145496,-0.05584 0.175311,0.07123 0.175311,0.747177 0,0.646041 -0.03626,0.814451 -0.175311,0.814451 -0.137551,0 -0.175312,-0.160936 -0.175312,-0.747178 z"
     style="fill:#ff0000;stroke-width:0.116874" />
  <path
     id="path92"
     d="m 37.568808,11.057111 c 0,-0.348567 0.05629,-0.535031 0.175312,-0.580703 0.141336,-0.05423 0.175311,0.04527 0.175311,0.51343 0,0.438263 -0.043,0.580702 -0.175311,0.580702 -0.129228,0 -0.175312,-0.134964 -0.175312,-0.513429 z"
     style="fill:#ff0000;stroke-width:0.116874" />
  <path
     id="path94"
     d="m 37.24035,11.141296 c 0.0521,-0.616556 0.328458,-0.656936 0.328458,-0.048 0,0.354499 -0.0469,0.477236 -0.182366,0.477236 -0.138721,0 -0.173684,-0.102728 -0.146092,-0.429244 z"
     style="fill:#ff0000;stroke-width:0.116874" />
  <path
     id="path96"
     d="m 36.95522,11.489976 c -0.290205,-0.07584 -0.26784,-0.576863 0.02922,-0.654545 0.199964,-0.05229 0.233748,-0.0035 0.233748,0.336991 0,0.218965 -0.01315,0.392017 -0.02922,0.384561 -0.01608,-0.0075 -0.121257,-0.03761 -0.233748,-0.06701 z"
     style="fill:#ff0000;stroke-width:0.116874" />
  <path
     id="path98"
     d="m 36.420716,11.258821 c 0.05686,-0.293211 0.329973,-0.333471 0.329973,-0.04864 0,0.143561 -0.07547,0.243488 -0.18388,0.243488 -0.108838,0 -0.168459,-0.07952 -0.146093,-0.194844 z"
     style="fill:#ff0000;stroke-width:0.116874" />
  <path
     id="path100"
     d="m 36.115451,11.349038 c -0.03557,-0.05755 0.01392,-0.134785 0.109976,-0.171643 0.106082,-0.04071 0.17464,3.66e-4 0.17464,0.104628 0,0.18903 -0.18263,0.232032 -0.284616,0.06701 z"
     style="fill:#ff0000;stroke-width:0.116874" />
  <path
     id="path102"
     d="m 44.207558,16.391598 c -0.02028,-0.04821 -0.0073,-0.797666 0.029,-1.665456 l 0.06587,-1.577801 0.02254,1.665457 c 0.02034,1.502608 -0.0051,1.844737 -0.11741,1.5778 z"
     style="fill:#ff0000;stroke-width:0.116874" />
  <path
     id="path104"
     d="m 37.222943,19.693294 c 0.0027,-2.08983 0.04015,-2.753136 0.168071,-2.980292 0.145948,-0.259163 0.168596,0.0068 0.200388,2.352755 0.03185,2.349817 0.01309,2.682357 -0.168071,2.980291 -0.197722,0.325167 -0.203807,0.253717 -0.200388,-2.352754 z"
     style="fill:#ff0000;stroke-width:0.116874" />
  <path
     id="path106"
     d="m 36.876604,20.394538 c -5.9e-4,-2.095673 0.0355,-2.7525 0.163739,-2.98029 0.145952,-0.259245 0.168544,0.0017 0.200389,2.314566 0.03138,2.279373 0.01082,2.653664 -0.163739,2.980291 -0.193316,0.361722 -0.199655,0.288502 -0.200389,-2.314567 z"
     style="fill:#ff0000;stroke-width:0.116874" />
  <path
     id="path108"
     d="m 36.90763,20.628286 c 4.24e-4,-0.514246 0.02097,-0.710081 0.04566,-0.435188 0.02468,0.274892 0.02434,0.695639 -7.72e-4,0.934993 -0.02511,0.239354 -0.04531,0.01444 -0.04489,-0.499805 z"
     style="fill:#ff0000;stroke-width:0.116874" />
  <path
     id="path110"
     d="m 36.405403,21.271094 c 0.0041,-2.365998 0.02692,-2.670683 0.228413,-3.038727 l 0.22395,-0.40906 0.0049,2.656062 c 0.0046,2.453621 -0.01288,2.685229 -0.228412,3.038728 l -0.233312,0.382665 z"
     style="fill:#ff0000;stroke-width:0.116874" />
  <path
     id="path112"
     d="m 36.057728,21.972339 c 0,-2.065308 0.03585,-2.692375 0.167028,-2.921853 0.148497,-0.259769 0.167028,-4.27e-4 0.167028,2.337483 0,2.065308 -0.03585,2.692375 -0.167028,2.921854 -0.148497,0.259767 -0.167028,4.25e-4 -0.167028,-2.337484 z"
     style="fill:#ff0000;stroke-width:0.116874" />
  <path
     id="path114"
     d="m 36.09093,22.147651 c -3.56e-4,-0.578528 0.0194,-0.829933 0.04392,-0.55868 0.02451,0.271255 0.0248,0.744595 6.47e-4,1.051868 -0.02415,0.307273 -0.04421,0.08534 -0.04456,-0.493188 z"
     style="fill:#ff0000;stroke-width:0.116874" />
  <path
     id="path116"
     d="m 35.465511,23.183063 c -3.92e-4,-2.21261 0.02373,-2.524054 0.230745,-2.980291 l 0.231181,-0.509478 0.0026,2.597624 c 0.0024,2.392886 -0.01582,2.627786 -0.230744,2.980292 l -0.233344,0.382665 z"
     style="fill:#ff0000;stroke-width:0.116874" />
  <path
     id="path118"
     d="m 35.254701,25.572063 c -0.221661,-0.22166 -0.187284,-4.287393 0.03878,-4.586274 0.152615,-0.201774 0.171595,0.04707 0.171595,2.249828 0,1.362183 -0.01577,2.476695 -0.03506,2.476695 -0.01929,0 -0.09817,-0.06311 -0.175311,-0.140249 z"
     style="fill:#ff0000;stroke-width:0.116874" />
  <path
     id="path120"
     d="m 35.93257,22.147651 c 0,-1.467745 0.02453,-2.644102 0.0545,-2.614127 0.07953,0.07953 0.09155,5.136703 0.01241,5.215852 -0.0368,0.0368 -0.0669,-1.133981 -0.0669,-2.601725 z"
     style="fill:#ff0000;stroke-width:0.116874" />
  <path
     id="path122"
     d="m 35.027052,23.55014 c 0.0012,-0.257123 0.02523,-0.348548 0.05318,-0.203167 0.02796,0.145382 0.0269,0.355755 -0.0024,0.467497 -0.02925,0.111741 -0.05212,-0.0072 -0.05082,-0.26433 z"
     style="fill:#ff0000;stroke-width:0.116874" />
  <path
     id="path124"
     d="m 34.84038,25.147957 c -0.164631,-0.181916 -0.193426,-0.521331 -0.193426,-2.280037 0,-2.013765 0.0057,-2.062713 0.226107,-1.925098 0.211235,0.13192 0.224994,0.281857 0.209228,2.280036 -0.0093,1.176358 -0.02399,2.138831 -0.03268,2.138831 -0.0087,0 -0.102842,-0.09618 -0.209229,-0.213732 z"
     style="fill:#ff0000;stroke-width:0.116874" />
  <path
     id="path126"
     d="M 34.865986,25.069504 C 34.739131,24.866832 34.624584,22.367393 34.7106,21.67894 c 0.156776,-1.254792 0.292932,-0.455993 0.260677,1.52934 -0.01768,1.087954 -0.06506,1.925505 -0.105291,1.861224 z"
     style="fill:#ff0000;stroke-width:0.116874" />
  <path
     id="path128"
     d="m 34.442425,24.759989 c -0.105745,-0.105891 -0.146093,-0.711627 -0.146093,-2.193261 0,-1.834105 0.01853,-2.02844 0.178167,-1.868801 0.148518,0.148519 0.172829,0.51349 0.146092,2.193261 -0.02566,1.612204 -0.06128,1.985845 -0.178166,1.868801 z"
     style="fill:#ff0000;stroke-width:0.116874" />
  <path
     id="path130"
     d="m 34.088915,24.400232 c -0.215129,-0.25957 -0.152982,-4.098122 0.06417,-3.963701 0.113464,0.07024 0.141303,0.574692 0.116874,2.117827 -0.02629,1.660642 -0.05891,1.993241 -0.181047,1.845874 z"
     style="fill:#ff0000;stroke-width:0.116874" />
  <path
     transform="matrix(1.0397553,0,0,1.0397553,-1.6424635,0)"
     id="path132"
     d=""
     style="fill:#ff0000;stroke-width:0.112405" />
  <path
     id="path134"
     d="m 33.679768,23.988432 c -0.18372,-0.203215 -0.203815,-0.444732 -0.175311,-2.106988 0.03042,-1.774207 0.0436,-1.869113 0.239613,-1.725624 0.186688,0.136663 0.204212,0.347271 0.175312,2.106989 -0.03091,1.882102 -0.03986,1.946572 -0.239614,1.725623 z"
     style="fill:#ff0000;stroke-width:0.116874" />
  <path
     id="path136"
     d="m 33.270647,23.582168 c -0.110166,-0.133097 -0.140702,-0.658388 -0.116875,-2.010514 0.02846,-1.614528 0.05292,-1.812503 0.207568,-1.679041 0.146947,0.126824 0.165856,0.452101 0.116873,2.010514 -0.04807,1.529309 -0.0849,1.827242 -0.207566,1.679041 z"
     style="fill:#ff0000;stroke-width:0.116874" />
  <path
     id="path138"
     d="m 32.971759,23.296913 c -0.14062,-0.140619 -0.09135,-3.686015 0.05056,-3.63871 0.087,0.029 0.122959,0.62516 0.111383,1.846259 -0.0094,0.991888 -0.03216,1.818493 -0.05056,1.8369 -0.0184,0.0184 -0.06853,-0.0016 -0.111383,-0.04445 z"
     style="fill:#ff0000;stroke-width:0.116874" />
  <path
     id="path140"
     d="m 32.664207,22.915016 c -0.06752,-0.126169 -0.120986,-0.978756 -0.120986,-1.929414 0,-1.655115 0.0064,-1.699349 0.226188,-1.562092 0.124404,0.07769 0.20165,0.180961 0.171658,0.229488 -0.02999,0.04853 -0.05452,0.853197 -0.05452,1.788156 0,0.93496 -0.0228,1.699927 -0.05068,1.699927 -0.02786,0 -0.105116,-0.10173 -0.171658,-0.226065 z"
     style="fill:#ff0000;stroke-width:0.116874" />
  <path
     id="path142"
     d="m 32.33869,22.560527 c -0.09905,-0.158911 -0.146092,-0.769893 -0.146092,-1.897262 0,-1.491553 0.01839,-1.644472 0.17856,-1.484308 0.147165,0.147164 0.172852,0.480761 0.146093,1.897262 -0.02703,1.430827 -0.05694,1.679441 -0.178561,1.484308 z"
     style="fill:#ff0000;stroke-width:0.116874" />
  <path
     id="path144"
     d="m 31.984246,22.195142 c -0.212063,-0.397833 -0.151824,-3.41242 0.06551,-3.277798 0.112784,0.06986 0.141389,0.51672 0.116874,1.825772 -0.02791,1.490392 -0.05346,1.693857 -0.182374,1.452026 z"
     style="fill:#ff0000;stroke-width:0.116874" />
  <path
     id="path146"
     d="m 31.686143,21.894423 c -0.04286,-0.04286 -0.07792,-0.783544 -0.07792,-1.645977 0,-1.139321 0.03714,-1.555682 0.13583,-1.522785 0.09607,0.03202 0.127748,0.50492 0.108216,1.615678 -0.01519,0.863721 -0.04125,1.584037 -0.05791,1.600701 -0.01667,0.01667 -0.06536,-0.0048 -0.108216,-0.04762 z"
     style="fill:#ff0000;stroke-width:0.116874" />
  <path
     id="path148"
     d="m 31.403698,21.604492 c -0.102447,-0.102655 -0.146093,-0.618289 -0.146093,-1.725869 0,-1.417877 0.0183,-1.561173 0.178853,-1.400618 0.146144,0.146144 0.172862,0.461776 0.146092,1.72587 -0.02621,1.237809 -0.06196,1.517755 -0.178852,1.400617 z"
     style="fill:#ff0000;stroke-width:0.116874" />
  <path
     id="path150"
     d="m 31.053075,21.253888 c -0.101886,-0.102114 -0.146093,-0.606629 -0.146093,-1.667451 0,-1.365824 0.01826,-1.502772 0.178963,-1.342071 0.145737,0.145737 0.17286,0.455315 0.146092,1.667451 -0.02631,1.190999 -0.06207,1.459226 -0.178962,1.342071 z"
     style="fill:#ff0000;stroke-width:0.116874" />
  <path
     id="path152"
     d="m 30.698753,20.89318 c -0.214591,-0.259135 -0.151624,-3.045319 0.06577,-2.910608 0.112025,0.06941 0.141459,0.470384 0.116875,1.592136 -0.02715,1.23845 -0.05892,1.467881 -0.182653,1.318472 z"
     style="fill:#ff0000;stroke-width:0.116874" />
  <path
     id="path154"
     d="m 30.348011,20.542895 c -0.107605,-0.130286 -0.140587,-0.565871 -0.116873,-1.543517 0.02911,-1.200384 0.05392,-1.344042 0.209039,-1.210603 0.145015,0.124749 0.165592,0.396511 0.116874,1.543519 -0.04903,1.154382 -0.08473,1.361115 -0.20904,1.210601 z"
     style="fill:#ff0000;stroke-width:0.116874" />
  <path
     id="path156"
     d="m 29.938797,20.130655 c -0.178664,-0.197771 -0.203754,-0.417788 -0.175311,-1.537374 0.03124,-1.23008 0.0454,-1.29763 0.241672,-1.153827 0.183259,0.134267 0.204467,0.320251 0.175311,1.537374 -0.03205,1.338155 -0.04016,1.376882 -0.241672,1.153827 z"
     style="fill:#ff0000;stroke-width:0.116874" />
  <path
     transform="matrix(1.0397553,0,0,1.0397553,-1.6424635,0)"
     id="path158"
     d=""
     style="fill:#ff0000;stroke-width:0.112405" />
  <path
     id="path160"
     d="M 29.471163,19.663034 C 29.293546,19.4664 29.267478,19.248631 29.295852,18.1985 c 0.03134,-1.160044 0.04575,-1.22445 0.241813,-1.080784 0.182346,0.133619 0.204324,0.317223 0.175311,1.464535 -0.03208,1.26855 -0.04004,1.304153 -0.241813,1.080783 z"
     style="fill:#ff0000;stroke-width:0.116874" />
  <path
     id="path162"
     d="m 29.061991,19.256763 c -0.106095,-0.128436 -0.140477,-0.530949 -0.116874,-1.368239 0.02938,-1.042147 0.05474,-1.16787 0.208753,-1.034804 0.142438,0.123065 0.164353,0.379631 0.116874,1.36824 -0.04866,1.01318 -0.08359,1.186324 -0.208753,1.034803 z"
     style="fill:#ff0000;stroke-width:0.116874" />
  <path
     id="path164"
     d="m 28.764289,18.97257 c -0.143297,-0.143297 -0.09053,-2.400125 0.05498,-2.35162 0.08955,0.02985 0.125263,0.422984 0.109483,1.205351 -0.02428,1.20385 -0.03464,1.276089 -0.164469,1.146269 z"
     style="fill:#ff0000;stroke-width:0.116874" />
  <path
     id="path166"
     d="m 28.335751,17.887635 c 0,-1.145066 0.05826,-1.408381 0.311587,-1.408381 0.09334,0 0.136548,0.05365 0.09602,0.119221 -0.04053,0.06557 -0.07369,0.587321 -0.07369,1.159441 0,0.793709 -0.03956,1.055403 -0.166963,1.10429 -0.136983,0.05256 -0.166963,-0.122434 -0.166963,-0.974571 z"
     style="fill:#ff0000;stroke-width:0.116874" />
  <path
     id="path168"
     d="m 27.985129,18.264791 c 0,-0.874123 0.04253,-1.207844 0.167115,-1.311238 0.142563,-0.118317 0.172611,0.02683 0.204529,0.987916 0.03173,0.955355 0.0063,1.154674 -0.167115,1.311239 -0.193467,0.174642 -0.204529,0.121211 -0.204529,-0.987917 z"
     style="fill:#ff0000;stroke-width:0.116874" />
  <path
     id="path170"
     d="m 27.52152,18.86407 c -0.0034,-1.03432 0.02494,-1.205938 0.229861,-1.391386 0.232197,-0.210135 0.233748,-0.204136 0.233748,0.903932 0,0.937738 -0.03663,1.159433 -0.229861,1.391385 l -0.22986,0.275915 z"
     style="fill:#ff0000;stroke-width:0.116874" />
  <path
     id="path172"
     d="m 27.167009,19.320882 c 0,-0.903436 0.04072,-1.210563 0.175312,-1.322264 0.15375,-0.127602 0.174854,-0.01078 0.171594,0.949901 -0.0026,0.777457 -0.05353,1.161245 -0.175311,1.322265 -0.154536,0.204314 -0.171595,0.109885 -0.171595,-0.949902 z"
     style="fill:#ff0000;stroke-width:0.116874" />
  <path
     id="path174"
     d="m 26.820104,19.736823 c 0.0026,-0.777458 0.05353,-1.161246 0.175311,-1.322265 0.154536,-0.204315 0.171594,-0.109885 0.171594,0.949902 0,0.903436 -0.04072,1.210563 -0.175311,1.322264 -0.15375,0.127602 -0.174854,0.01078 -0.171594,-0.949901 z"
     style="fill:#ff0000;stroke-width:0.116874" />
  <path
     id="path176"
     d="m 26.584429,20.080032 c 9.83e-4,-0.598391 0.05277,-1.166874 0.115084,-1.263295 0.07725,-0.119544 0.113864,0.203572 0.115084,1.015752 0.001,0.670016 -0.04934,1.22266 -0.115084,1.263294 -0.07477,0.04621 -0.11623,-0.319764 -0.115084,-1.015751 z"
     style="fill:#ff0000;stroke-width:0.116874" />
  <path
     id="path178"
     d="m 26.35722,20.349565 6.16e-4,-1.194873 0.143234,-0.165285 0.143234,-0.165285 -0.03022,0.309909 c -0.05035,0.516386 -0.03547,1.826438 0.0219,1.928325 0.04441,0.07887 0.0327,0.110849 -0.09831,0.268589 -0.0818,0.09849 -0.155997,0.186806 -0.164896,0.196275 -0.0089,0.0095 -0.0159,-0.520475 -0.01556,-1.177655 z"
     style="fill:#ff0000;stroke-width:0.0413212" />
  <path
     id="path180"
     d="m 26.026037,20.769505 v -1.183371 l 0.165284,-0.209102 0.165285,-0.209101 v 1.192454 1.192455 l -0.165285,0.200018 -0.165284,0.200017 z"
     style="fill:#ff0000;stroke-width:0.0413212" />
  <path
     id="path182"
     d="m 25.738954,21.117452 -9.37e-4,-1.177656 0.142458,-0.165285 0.142458,-0.165285 9.37e-4,1.177655 9.37e-4,1.177656 -0.142458,0.165285 -0.142458,0.165286 z"
     style="fill:#ff0000;stroke-width:0.0413212" />
  <path
     id="path184"
     d="m 25.406218,21.536335 v -1.165097 l 0.165284,-0.209101 0.165285,-0.209102 v 1.177457 1.177457 l -0.149106,0.179525 c -0.08201,0.09874 -0.156388,0.187272 -0.165286,0.196741 -0.0089,0.0095 -0.01618,-0.507076 -0.01618,-1.14788 z"
     style="fill:#ff0000;stroke-width:0.0413212" />
  <path
     transform="matrix(1.0397553,0,0,1.0397553,-1.6424635,0)"
     id="path186"
     d=""
     style="fill:#ff0000;stroke-width:0.0397413" />
  <path
     id="path188"
     d="m 30.972963,21.291868 c -0.234554,-0.237025 -0.279028,-0.318573 -0.18994,-0.34827 0.02637,-0.0088 0.05795,-0.166167 0.07323,-0.365004 l 0.02687,-0.34955 0.03101,0.392552 c 0.03898,0.493435 0.0664,0.620861 0.139677,0.648979 0.08201,0.03146 0.107291,-0.0057 0.139859,-0.205543 0.02398,-0.147139 0.02931,-0.124097 0.03367,0.145392 0.0028,0.176132 -5.8e-5,0.32024 -0.0064,0.32024 -0.0063,0 -0.11796,-0.107458 -0.247928,-0.238796 z"
     style="fill:#ff0000;stroke-width:0.0413212" />
  <path
     id="path190"
     d="m 25.075647,21.954317 v -1.155551 l 0.146517,-0.191888 c 0.08058,-0.105539 0.154963,-0.191888 0.165285,-0.191888 0.01029,0 0.01877,0.51634 0.01877,1.147423 v 1.147422 l -0.165286,0.200018 -0.165285,0.200017 z"
     style="fill:#ff0000;stroke-width:0.0413212" />
  <path
     id="path192"
     d="m 24.746839,22.35354 -0.0018,-1.139884 0.150152,-0.192727 c 0.08259,-0.105999 0.156961,-0.192726 0.165284,-0.192726 0.0083,0 0.01509,0.515998 0.01503,1.146664 l -1.12e-4,1.146665 -0.163412,0.185946 -0.163412,0.185945 z"
     style="fill:#ff0000;stroke-width:0.0413212" />
  <path
     id="path194"
     d="m 24.415741,22.766752 -0.0012,-1.139883 0.150152,-0.192727 c 0.08259,-0.106 0.156961,-0.192727 0.165285,-0.192727 0.0083,0 0.01458,0.516 0.0139,1.146665 l -0.0012,1.146664 -0.162819,0.185946 -0.162818,0.185946 z"
     style="fill:#ff0000;stroke-width:0.0413212" />
  <path
     id="path196"
     d="m 24.430431,23.018229 c 0,-0.284084 0.0066,-0.400299 0.01467,-0.258258 0.0081,0.142042 0.0081,0.374474 0,0.516516 -0.0081,0.142042 -0.01467,0.02583 -0.01467,-0.258258 z"
     style="fill:#ff0000;stroke-width:0.0413212" />
  <path
     id="path198"
     d="m 24.084049,23.18905 -1.12e-4,-1.130799 0.148144,-0.201811 c 0.08147,-0.110997 0.155857,-0.201812 0.165285,-0.201812 0.0095,0 0.01634,0.515999 0.01538,1.146665 l -0.0018,1.146664 -0.163411,0.185945 -0.163412,0.185946 z"
     style="fill:#ff0000;stroke-width:0.0413212" />
  <path
     id="path200"
     d="m 23.753368,23.597783 v -1.128386 l 0.154954,-0.203238 0.154955,-0.203237 0.01161,1.087142 c 0.0063,0.597928 0.0015,1.124331 -0.011,1.169784 -0.01243,0.04546 -0.08738,0.15547 -0.166563,0.244482 l -0.143959,0.16184 z"
     style="fill:#ff0000;stroke-width:0.0413212" />
  <path
     id="path202"
     d="m 23.465839,23.954712 -0.0018,-1.108919 0.130969,-0.18237 c 0.07203,-0.100305 0.137113,-0.182371 0.144625,-0.182371 0.0075,0 0.01365,0.508253 0.01365,1.129451 v 1.12945 l -0.142905,0.161839 -0.142904,0.161839 z"
     style="fill:#ff0000;stroke-width:0.0413212" />
  <path
     id="path204"
     d="m 23.13366,24.365672 -1.11e-4,-1.111172 0.153115,-0.200778 c 0.08421,-0.110428 0.158592,-0.200778 0.165285,-0.200778 0.0067,0 0.01138,0.506701 0.01041,1.126004 l -0.0018,1.126005 -0.163412,0.185944 -0.163411,0.185946 z"
     style="fill:#ff0000;stroke-width:0.0413212" />
  <path
     id="path206"
     d="m 22.802978,24.780193 v -1.102971 l 0.154955,-0.207606 0.154955,-0.207606 0.01161,1.066096 c 0.0063,0.586352 0.0015,1.103284 -0.011,1.148737 -0.01243,0.04546 -0.08739,0.15547 -0.16657,0.244482 l -0.143959,0.16184 z"
     style="fill:#ff0000;stroke-width:0.0413212" />
  <path
     id="path208"
     d="m 22.472409,25.187679 v -1.103927 l 0.165284,-0.207589 0.165285,-0.20759 v 1.111499 1.111499 l -0.165285,0.200018 -0.165284,0.200018 z"
     style="fill:#ff0000;stroke-width:0.0413212" />
  <path
     id="path210"
     d="m 22.143601,25.589261 -0.0018,-1.085898 0.165285,-0.209101 0.165286,-0.209101 -1.13e-4,1.109054 -1.11e-4,1.109054 -0.163412,0.185945 -0.163411,0.185946 z"
     style="fill:#ff0000;stroke-width:0.0413212" />
  <path
     id="path212"
     d="m 21.812502,26.009631 -0.0012,-1.078741 0.146517,-0.191887 c 0.08058,-0.105538 0.154962,-0.191887 0.165285,-0.191887 0.01029,0 0.01822,0.488107 0.01753,1.084682 l -0.0012,1.084683 -0.162819,0.185946 -0.162819,0.185945 z"
     style="fill:#ff0000;stroke-width:0.0413212" />
  <path
     id="path214"
     d="m 21.481313,26.423683 -6.15e-4,-1.077901 0.154955,-0.198943 0.154955,-0.198942 0.01162,1.028917 c 0.0064,0.565903 0.0016,1.066105 -0.01083,1.111558 -0.01235,0.04546 -0.08704,0.157021 -0.165969,0.247928 l -0.14351,0.165285 z"
     style="fill:#ff0000;stroke-width:0.0413212" />
  <path
     id="path216"
     d="m 21.19145,26.792418 v -1.072027 l 0.127538,-0.173425 c 0.07014,-0.09539 0.135227,-0.173426 0.144624,-0.173426 0.0094,0 0.01691,0.478811 0.01669,1.064022 l -4e-4,1.064023 -0.144224,0.181431 -0.144223,0.18143 z"
     style="fill:#ff0000;stroke-width:0.0413212" />
  <path
     id="path218"
     d="m 20.862113,27.188126 -0.0012,-1.057241 0.150152,-0.192726 c 0.08259,-0.106 0.156963,-0.192727 0.165285,-0.192727 0.0083,0 0.01458,0.47881 0.0139,1.064022 l -0.0012,1.064022 -0.16282,0.185946 -0.162818,0.185945 z"
     style="fill:#ff0000;stroke-width:0.0413212" />
  <path
     id="path220"
     d="m 20.530421,27.610424 -1.11e-4,-1.048155 0.148143,-0.201813 c 0.08148,-0.110997 0.155858,-0.201812 0.165285,-0.201812 0.0095,0 0.01635,0.47881 0.01538,1.064022 l -0.0018,1.064022 -0.163412,0.185946 -0.163411,0.185945 z"
     style="fill:#ff0000;stroke-width:0.0413212" />
  <path
     id="path222"
     d="m 20.19974,27.756399 c 0,-0.719679 0.01107,-1.308506 0.02461,-1.308506 0.01354,0 0.07607,0.03664 0.138958,0.08142 0.06289,0.04478 0.126193,0.06957 0.140672,0.0551 0.01448,-0.01448 0.02633,0.449176 0.02633,1.030344 v 1.056669 l -0.149107,0.179525 c -0.08201,0.09874 -0.156388,0.187272 -0.165285,0.196741 -0.0089,0.0095 -0.01618,-0.57161 -0.01618,-1.291288 z"
     style="fill:#ff0000;stroke-width:0.0413212" />
  <path
     id="path224"
     d="m 20.003464,28.967861 -0.134295,-0.12217 v -1.322863 c 0,-0.727574 0.0095,-1.322862 0.02102,-1.322862 0.01156,0 0.09058,0.05113 0.175616,0.113633 l 0.154597,0.113633 -0.01091,1.332611 c -0.006,0.732935 -0.02459,1.332065 -0.04132,1.331398 -0.01673,-6.65e-4 -0.09085,-0.05619 -0.164712,-0.12338 z"
     style="fill:#ff0000;stroke-width:0.0413212" />
  <path
     id="path226"
     d="m 19.692975,28.697696 -0.155533,-0.144592 0.01091,-1.301053 0.01091,-1.301053 0.154954,0.105313 0.154955,0.105313 v 1.34145 c 0,0.737798 -0.0047,1.340948 -0.01029,1.340333 -0.0057,-6.14e-4 -0.08032,-0.06618 -0.165863,-0.145711 z"
     style="fill:#ff0000;stroke-width:0.0413212" />
  <path
     id="path228"
     d="m 19.341725,28.392606 -0.134892,-0.112935 0.01093,-1.288149 0.01093,-1.288149 0.154955,0.110272 0.154955,0.110271 v 1.27192 c 0,0.699557 -0.01394,1.280422 -0.031,1.290813 -0.01704,0.0104 -0.0917,-0.03193 -0.165884,-0.09405 z"
     style="fill:#ff0000;stroke-width:0.0413212" />
  <path
     id="path230"
     d="m 19.031805,28.12821 -0.114243,-0.09353 0.01094,-1.266938 0.01094,-1.266938 0.134294,0.08505 0.134293,0.08505 v 1.276901 c 0,0.702295 -0.01394,1.276232 -0.031,1.275415 -0.01704,-8.18e-4 -0.0824,-0.04358 -0.145233,-0.09501 z"
     style="fill:#ff0000;stroke-width:0.0413212" />
  <path
     id="path232"
     d="m 18.721889,27.855414 -0.134911,-0.112948 0.01095,-1.246815 0.01095,-1.246814 0.154954,0.110272 0.154955,0.110273 v 1.230599 c 0,0.67683 -0.01394,1.239101 -0.031,1.249492 -0.01704,0.0104 -0.0917,-0.03194 -0.165901,-0.09406 z"
     style="fill:#ff0000;stroke-width:0.0413212" />
  <path
     id="path234"
     d="m 18.390877,27.570375 -0.133981,-0.110111 3.72e-4,-1.229894 3.73e-4,-1.229894 0.165285,0.109381 0.165284,0.10938 v 1.211048 c 0,0.666076 -0.01425,1.219857 -0.03167,1.230623 -0.01743,0.01077 -0.09197,-0.02998 -0.165658,-0.09053 z"
     style="fill:#ff0000;stroke-width:0.0413212" />
  <path
     id="path236"
     d="m 18.060992,27.281954 -0.134666,-0.110939 3.72e-4,-1.211326 3.73e-4,-1.211328 0.164403,0.116315 0.164403,0.116313 -0.0042,0.785104 c -0.0023,0.431807 -0.01585,0.974485 -0.03011,1.205951 l -0.02593,0.42085 z"
     style="fill:#ff0000;stroke-width:0.0413212" />
  <path
     id="path238"
     d="M 17.730795,27.008346 17.596501,26.895081 V 25.70083 24.50658 l 0.164705,0.113241 0.164705,0.11324 -0.0086,0.847086 c -0.0048,0.465897 -0.01842,1.003321 -0.03041,1.194275 l -0.0218,0.347191 z"
     style="fill:#ff0000;stroke-width:0.0413212" />
  <path
     id="path240"
     d="m 17.420885,26.734914 -0.154954,-0.127753 v -1.153987 c 0,-0.634693 0.01465,-1.153986 0.03256,-1.153986 0.0179,0 0.09293,0.05113 0.166738,0.113633 l 0.134186,0.113634 -0.01178,1.168105 -0.01178,1.168106 z"
     style="fill:#ff0000;stroke-width:0.0413212" />
  <path
     id="path242"
     d="M 17.090315,26.45147 16.93536,26.315368 v -1.132054 c 0,-0.62263 0.0095,-1.132053 0.02102,-1.132053 0.01156,0 0.09058,0.05113 0.175616,0.113632 l 0.154597,0.113634 -0.02066,1.154523 -0.02066,1.154523 z"
     style="fill:#ff0000;stroke-width:0.0413212" />
  <path
     id="path244"
     d="m 16.780406,26.181684 -0.134294,-0.113029 v -1.112001 c 0,-0.6116 0.01394,-1.111908 0.031,-1.111794 0.01704,1.12e-4 0.08264,0.04195 0.145756,0.09297 l 0.114766,0.09277 -0.01146,1.132056 -0.01146,1.132057 z"
     style="fill:#ff0000;stroke-width:0.0413212" />
  <path
     id="path246"
     d="m 16.470497,25.914297 -0.154955,-0.136105 v -1.090733 c 0,-0.599903 0.0095,-1.090733 0.02101,-1.090733 0.01156,0 0.09058,0.05113 0.175616,0.113634 l 0.154597,0.113633 -0.02066,1.113206 -0.02066,1.113204 z"
     style="fill:#ff0000;stroke-width:0.0413212" />
  <path
     id="path248"
     d="m 16.127705,25.611138 -0.145301,-0.134295 0.01161,-1.064549 0.01161,-1.064551 0.154955,0.105321 0.154954,0.10532 v 1.093524 c 0,0.601438 -0.0096,1.093524 -0.02127,1.093524 -0.0117,0 -0.08665,-0.06043 -0.166569,-0.134294 z"
     style="fill:#ff0000;stroke-width:0.0413212" />
  <path
     id="path250"
     d="m 15.787971,25.321482 -0.13502,-0.139319 0.01105,-1.041023 0.01105,-1.041024 0.154955,0.110281 0.154955,0.110279 -0.0042,0.974781 c -0.0023,0.536129 -0.01621,1.017657 -0.031,1.070063 -0.02665,0.0945 -0.02798,0.09414 -0.161892,-0.04403 z"
     style="fill:#ff0000;stroke-width:0.0413212" />
  <path
     id="path252"
     d="m 15.455771,25.030537 -0.131939,-0.136125 v -1.021321 -1.021319 l 0.165285,0.10938 0.165285,0.10938 -6.33e-4,0.996549 c -3.48e-4,0.548102 -0.01536,1.019732 -0.03335,1.048066 -0.02365,0.03724 -0.06926,0.01381 -0.164652,-0.08461 z"
     style="fill:#ff0000;stroke-width:0.0413212" />
  <path
     id="path254"
     d="m 15.146272,24.76231 -0.15301,-0.156698 v -1.002977 -1.002978 l 0.164403,0.116313 0.164403,0.116314 8.81e-4,1.043361 c 4.86e-4,0.573849 -0.0047,1.043362 -0.0114,1.043362 -0.0068,0 -0.08113,-0.07052 -0.165286,-0.156697 z"
     style="fill:#ff0000;stroke-width:0.0413212" />
  <path
     id="path256"
     d="m 14.817647,24.48346 -0.154955,-0.144064 v -0.990761 -0.990761 l 0.163717,0.113241 0.163717,0.113241 0.0016,1.022701 c 8.62e-4,0.562485 -0.0031,1.022197 -0.0087,1.021583 -0.0057,-6.15e-4 -0.08006,-0.06595 -0.165284,-0.14518 z"
     style="fill:#ff0000;stroke-width:0.0413212" />
  <path
     id="path258"
     d="m 14.506957,24.205781 -0.135074,-0.139405 0.0111,-0.959286 0.01112,-0.959287 0.135826,0.114973 0.135825,0.114973 -0.01186,0.983718 -0.01186,0.983718 z"
     style="fill:#ff0000;stroke-width:0.0413212" />
  <path
     id="path260"
     d="M 14.176946,23.924292 14.042873,23.804497 V 22.853919 21.90334 l 0.163717,0.113241 0.163717,0.113241 9.36e-4,0.909067 c 5.13e-4,0.499987 -0.01283,0.930697 -0.02964,0.957132 -0.02108,0.03312 -0.07226,0.01081 -0.164652,-0.07173 z"
     style="fill:#ff0000;stroke-width:0.0413212" />
  <path
     id="path262"
     d="m 13.866468,23.659291 -0.155743,-0.134669 0.01112,-0.933372 0.01112,-0.933373 0.156406,0.13267 0.156407,0.132669 -0.01178,0.935372 -0.01178,0.935373 z"
     style="fill:#ff0000;stroke-width:0.0413212" />
  <path
     id="path264"
     d="m 13.516027,23.351913 -0.134293,-0.112435 v -0.895729 c 0,-0.49265 0.01219,-0.895728 0.02708,-0.895728 0.0149,0 0.08927,0.04743 0.165286,0.105406 l 0.138194,0.105406 v 0.883866 c 0,0.486125 -0.01394,0.892366 -0.03099,0.902756 -0.01704,0.0104 -0.09143,-0.0317 -0.165285,-0.09355 z"
     style="fill:#ff0000;stroke-width:0.0413212" />
  <path
     id="path266"
     d="m 13.206116,23.086418 -0.154957,-0.130171 2e-6,-0.878076 c 10e-7,-0.482942 0.0095,-0.878078 0.02102,-0.878078 0.01156,0 0.09058,0.05114 0.175615,0.113634 l 0.154597,0.113634 -0.02066,0.894614 -0.02066,0.894613 z"
     style="fill:#ff0000;stroke-width:0.0413212" />
  <path
     id="path268"
     d="m 12.720799,22.360707 -2.06e-4,-0.843468 0.128168,-0.199734 c 0.0705,-0.109854 0.144871,-0.18941 0.165286,-0.176794 0.02041,0.01261 0.03712,0.421042 0.03712,0.907611 0,0.769398 -0.0081,0.881572 -0.06198,0.860886 -0.03409,-0.01308 -0.06264,-0.0078 -0.06347,0.01162 -8.18e-4,0.01947 -0.04722,0.0912 -0.103102,0.159376 l -0.101616,0.123964 -2.05e-4,-0.843468 z"
     style="fill:#ff0000;stroke-width:0.0413212" />
  <path
     id="path270"
     d="m 12.390638,22.805979 -6.15e-4,-0.811409 0.154955,-0.238841 0.154955,-0.238842 0.01172,0.802323 c 0.0064,0.441277 0.0016,0.839511 -0.01084,0.884965 -0.0124,0.04545 -0.08713,0.157021 -0.166063,0.247928 l -0.14351,0.165284 z"
     style="fill:#ff0000;stroke-width:0.0413212" />
  <path
     id="path272"
     d="m 12.101389,23.207792 -6.14e-4,-0.781486 0.12827,-0.199894 c 0.07055,-0.109941 0.135631,-0.199893 0.144625,-0.199893 0.009,0 0.01566,0.367243 0.01481,0.816095 l -0.0016,0.816094 -0.142457,0.165285 -0.142458,0.165286 z"
     style="fill:#ff0000;stroke-width:0.0413212" />
  <path
     id="path274"
     d="m 11.770335,23.674437 1.32e-4,-0.759512 0.165022,-0.247927 0.165023,-0.247928 1.31e-4,0.79985 1.32e-4,0.799848 -0.165286,0.207589 -0.165285,0.20759 z"
     style="fill:#ff0000;stroke-width:0.0413212" />
  <path
     id="path276"
     d="m 11.439844,24.123572 2.1e-4,-0.712791 0.154745,-0.239882 0.154744,-0.239883 0.01128,0.75065 0.01128,0.750651 -0.154065,0.202024 c -0.08474,0.111112 -0.159542,0.202023 -0.166235,0.202023 -0.0067,0 -0.01207,-0.320756 -0.01196,-0.712792 z"
     style="fill:#ff0000;stroke-width:0.0413212" />
  <path
     id="path278"
     d="m 11.109679,24.57747 -6.15e-4,-0.692766 0.154955,-0.233506 0.154955,-0.233507 0.0118,0.678346 c 0.0064,0.37309 0.0017,0.715534 -0.01083,0.760988 -0.01245,0.04545 -0.0872,0.157021 -0.166138,0.247928 l -0.143511,0.165284 z"
     style="fill:#ff0000;stroke-width:0.0413212" />
  <path
     id="path280"
     d="m 10.778494,25.047732 v -0.667173 l 0.154955,-0.233501 0.154954,-0.2335 0.01134,0.691812 0.01134,0.691812 -0.166299,0.208862 -0.166298,0.208861 z"
     style="fill:#ff0000;stroke-width:0.0413212" />
  <path
     id="path282"
     d="M 10.447925,25.498307 V 24.87929 l 0.154954,-0.2384 0.154955,-0.238399 0.0114,0.654152 0.0114,0.654151 -0.149211,0.203264 c -0.08207,0.111796 -0.156923,0.203265 -0.16635,0.203265 -0.0095,0 -0.01715,-0.278558 -0.01715,-0.619016 z"
     style="fill:#ff0000;stroke-width:0.0413212" />
  <path
     id="path284"
     d="m 10.118718,25.952038 -0.0011,-0.599159 0.165021,-0.247926 0.165023,-0.247928 -0.0011,0.66114 -0.0011,0.66114 -0.162819,0.185945 -0.162818,0.185946 z"
     style="fill:#ff0000;stroke-width:0.0413212" />
  <path
     id="path286"
     d="m 9.8281057,26.369562 v -0.586069 l 0.1446237,-0.214755 0.1446246,-0.214756 v 0.611417 0.611416 l -0.1446246,0.189408 -0.1446237,0.189409 z"
     style="fill:#ff0000;stroke-width:0.0413212" />
  <path
     id="path288"
     d="m 9.4975353,26.819148 v -0.537812 l 0.1549547,-0.233545 0.1549547,-0.233544 0.01152,0.569013 0.011521,0.569013 -0.1543091,0.202344 c -0.084865,0.111289 -0.1597854,0.202344 -0.1664783,0.202344 -0.00665,0 -0.012175,-0.242016 -0.012175,-0.537813 z"
     style="fill:#ff0000;stroke-width:0.0413212" />
  <path
     id="path290"
     d="m 9.1670969,27.263988 1.32e-4,-0.506186 0.1650216,-0.247927 0.1650217,-0.247927 1.32e-4,0.561385 1.311e-4,0.561386 -0.1501522,0.192727 c -0.082588,0.106 -0.1569614,0.192727 -0.1652847,0.192727 -0.00832,0 -0.015076,-0.227783 -0.015004,-0.506185 z"
     style="fill:#ff0000;stroke-width:0.0413212" />
  <path
     id="path292"
     d="m 8.8365264,27.744579 1.321e-4,-0.490922 0.1650216,-0.247928 0.1650227,-0.247927 1.31e-4,0.531261 1.32e-4,0.531261 -0.1652857,0.207589 -0.1652847,0.207589 z"
     style="fill:#ff0000;stroke-width:0.0413212" />
  <path
     id="path294"
     d="m 8.505957,28.193715 1.31e-4,-0.444203 0.1650227,-0.247927 0.1650216,-0.247928 1.321e-4,0.491353 1.31e-4,0.491353 -0.1531154,0.200778 c -0.08421,0.110428 -0.1585918,0.200779 -0.1652847,0.200779 -0.00665,0 -0.012113,-0.199892 -0.01204,-0.444205 z"
     style="fill:#ff0000;stroke-width:0.0413212" />
  <path
     id="path296"
     d="m 8.1758701,28.647614 c -6.104e-4,-0.4215 3.639e-4,-0.425654 0.1543402,-0.657833 l 0.1549547,-0.233655 0.012082,0.409906 c 0.014536,0.49305 0.00572,0.5297 -0.1772502,0.740475 l -0.1435102,0.165286 z"
     style="fill:#ff0000;stroke-width:0.0413212" />
  <path
     id="path298"
     d="m 7.8446851,29.117876 c 0,-0.391505 0.0027,-0.402736 0.1549548,-0.632221 l 0.1549547,-0.233636 0.011801,0.422781 0.011801,0.422781 -0.166759,0.20944 -0.1667591,0.20944 z"
     style="fill:#ff0000;stroke-width:0.0413212" />
  <path
     id="path300"
     d="m 7.5554366,29.528383 c 0,-0.343177 0.00863,-0.380168 0.1342938,-0.576352 l 0.1342948,-0.20964 0.012186,0.350646 c 0.014619,0.420428 0.00177,0.474333 -0.1574501,0.658995 l -0.1233296,0.143064 z"
     style="fill:#ff0000;stroke-width:0.0413212" />
  <path
     id="path302"
     d="m 7.2254817,29.969894 c -5.874e-4,-0.326021 0.00645,-0.352155 0.1543392,-0.575289 l 0.1549548,-0.233753 0.012248,0.327222 c 0.015087,0.403011 0.00208,0.451364 -0.1774218,0.658071 L 7.2260921,30.31143 Z"
     style="fill:#ff0000;stroke-width:0.0413212" />
  <path
     id="path304"
     d="m 6.8942968,30.440155 c 0,-0.295991 0.00977,-0.330702 0.1549547,-0.549666 l 0.1549548,-0.233725 0.01204,0.339934 0.01204,0.339932 -0.166992,0.209734 -0.166993,0.209735 z"
     style="fill:#ff0000;stroke-width:0.0413212" />
  <path
     id="path306"
     d="m 6.5637263,30.889291 c 0,-0.241993 0.015669,-0.292869 0.1549548,-0.503007 l 0.1549547,-0.233785 0.012207,0.299768 c 0.011843,0.29073 0.00749,0.305895 -0.1427854,0.503007 -0.085249,0.111783 -0.1604696,0.203241 -0.1671625,0.203241 -0.00665,0 -0.012165,-0.12115 -0.012165,-0.269224 z"
     style="fill:#ff0000;stroke-width:0.0413212" />
  <path
     id="path308"
     d="m 6.233288,31.334131 c 1.154e-4,-0.208086 0.020629,-0.268391 0.1651536,-0.485525 l 0.1650217,-0.247927 1.32e-4,0.292797 c 1.227e-4,0.273866 -0.00957,0.305261 -0.1500211,0.485526 -0.082588,0.105999 -0.1569614,0.192726 -0.1652847,0.192726 -0.00832,0 -0.015076,-0.106919 -0.015004,-0.237597 z"
     style="fill:#ff0000;stroke-width:0.0413212" />
  <path
     id="path310"
     d="m 5.9027185,31.812822 c 1.113e-4,-0.18715 0.024476,-0.25705 0.161367,-0.462944 l 0.1612348,-0.242512 0.014245,0.248416 c 0.013746,0.239702 0.00811,0.255941 -0.1613669,0.462944 l -0.1756158,0.214529 1.31e-4,-0.220433 z"
     style="fill:#ff0000;stroke-width:0.0413212" />
  <path
     id="path312"
     d="m 5.5722261,32.263859 c 1.591e-4,-0.132323 0.038357,-0.234875 0.1549547,-0.416005 l 0.1547447,-0.24039 0.012591,0.212265 c 0.011333,0.191096 -0.00291,0.232584 -0.1427844,0.416005 -0.085458,0.112057 -0.1608512,0.20374 -0.1675441,0.20374 -0.00665,0 -0.012072,-0.07903 -0.011957,-0.175615 z"
     style="fill:#ff0000;stroke-width:0.0413212" />
  <path
     id="path314"
     d="m 5.2833821,32.670359 c -4.222e-4,-0.111112 0.0395,-0.224178 0.127657,-0.361562 0.070547,-0.10994 0.1356298,-0.199892 0.1446247,-0.199892 0.00894,0 0.015659,0.08833 0.014796,0.196275 -0.00125,0.163033 -0.025682,0.22427 -0.1440092,0.361562 l -0.1424579,0.165284 z"
     style="fill:#ff0000;stroke-width:0.0413212" />
  <path
     transform="matrix(1.0397553,0,0,1.0397553,-1.6424635,0)"
     id="path316"
     d=""
     style="fill:#ff0000;stroke-width:0.0397413" />
  <path
     id="path318"
     d="m 4.9523292,33.137003 c 8.84e-5,-0.09385 0.054286,-0.221054 0.1651537,-0.38762 l 0.1650216,-0.247927 1.321e-4,0.18003 c 1.081e-4,0.147996 -0.02928,0.216968 -0.1651537,0.38762 l -0.1652847,0.207589 z"
     style="fill:#ff0000;stroke-width:0.0413212" />
  <path
     transform="matrix(1.0397553,0,0,1.0397553,-1.6424635,0)"
     id="path320"
     d=""
     style="fill:#ff0000;stroke-width:0.0397413" />
  <path
     id="path322"
     d="m 4.6110846,33.609989 c -6.041e-4,-0.08312 0.039511,-0.170941 0.1730673,-0.378863 l 0.1738533,-0.270662 -0.01647,0.174334 c -0.016771,0.177525 -0.061751,0.266504 -0.243205,0.481128 l -0.086456,0.10226 z"
     style="fill:#ff0000;stroke-width:0.0292186" />
  <path
     transform="matrix(1.0397553,0,0,1.0397553,-1.6424635,0)"
     id="path324"
     d=""
     style="fill:#ff0000;stroke-width:0.0281014" />
  <path
     id="path326"
     d="m 4.2888946,34.038833 c 0,-0.04089 0.07167,-0.180858 0.1607025,-0.313839 l 0.1607015,-0.240031 v 0.12708 c 0,0.108825 -0.021346,0.153909 -0.1486081,0.313839 -0.081735,0.102718 -0.1540512,0.18676 -0.1607025,0.18676 -0.00665,0 -0.012092,-0.03321 -0.012092,-0.07381 z"
     style="fill:#ff0000;stroke-width:0.0292186" />
  <path
     id="path328"
     d="m 3.7921796,34.731987 c 0,-0.01979 0.1101516,-0.200911 0.2447812,-0.402487 0.2294418,-0.343537 0.2455923,-0.360969 0.2577398,-0.278205 0.01099,0.07487 -0.019859,0.129554 -0.2029582,0.359703 -0.2617376,0.329001 -0.2995628,0.369532 -0.2995628,0.320989 z"
     style="fill:#ff0000;stroke-width:0.0292186" />
  <path
     id="path330"
     d="m 28.315533,17.079339 c -0.004,-0.103154 -0.07065,-0.187479 -0.130149,-0.164646 -0.02643,0.01019 -0.04806,0.01167 -0.04806,0.0034 0,-0.02505 0.333631,-0.448123 0.344673,-0.437082 0.0056,0.0056 -0.01249,0.05421 -0.04028,0.107935 -0.0278,0.05372 -0.06692,0.202863 -0.08692,0.331424 -0.02,0.128562 -0.03768,0.200103 -0.03927,0.158982 z"
     style="fill:#ff0000;stroke-width:0.0292186" />
  <path
     id="path332"
     d="m 28.929017,17.037231 c -0.0051,-0.212531 -0.04464,-0.39536 -0.09189,-0.424564 -0.01919,-0.01186 -0.03001,-0.03549 -0.02403,-0.0525 0.0059,-0.01701 0.112766,0.04285 0.23731,0.133026 0.18326,0.132694 0.226221,0.178346 0.225273,0.23939 l -0.0011,0.07542 -0.0432,-0.07961 c -0.05344,-0.09848 -0.152959,-0.157235 -0.195033,-0.11516 -0.01638,0.01638 -0.04627,0.112919 -0.06643,0.214541 l -0.03665,0.184765 z"
     style="fill:#ff0000;stroke-width:0.0292186" />
  <path
     id="path334"
     d="m 27.669835,17.508142 c 0,-0.02051 0.387836,-0.517046 0.396036,-0.507032 0.0031,0.0038 -0.01472,0.110648 -0.03964,0.237448 -0.03484,0.177368 -0.05063,0.216121 -0.06842,0.168007 -0.03102,-0.08385 -0.06264,-0.07903 -0.184703,0.02815 -0.0568,0.04988 -0.103279,0.08292 -0.103279,0.07344 z"
     style="fill:#ff0000;stroke-width:0.0292186" />
  <path
     id="path336"
     d="m 27.176215,18.26441 c -0.0017,-0.138817 0.0094,-0.160271 0.221769,-0.430763 0.222674,-0.283527 0.287325,-0.339398 0.202159,-0.174704 -0.02463,0.04763 -0.05455,0.177047 -0.06648,0.287596 -0.01654,0.153244 -0.02555,0.180172 -0.03791,0.113342 -0.02014,-0.10887 -0.112919,-0.130269 -0.190954,-0.04404 -0.03026,0.03344 -0.07116,0.135916 -0.09089,0.22773 l -0.03588,0.166934 z"
     style="fill:#ff0000;stroke-width:0.0292186" />
  <path
     id="path338"
     d="m 26.792831,18.96322 c -2.46e-4,-0.06295 -0.01364,-0.134162 -0.02978,-0.158267 -0.02538,-0.03794 -0.03514,-0.03621 -0.0726,0.01289 -0.02803,0.03673 -0.04327,0.04275 -0.04327,0.01708 0,-0.04083 0.295313,-0.445647 0.312536,-0.428424 0.0053,0.0053 -0.0088,0.05439 -0.03152,0.109082 -0.02264,0.05469 -0.05623,0.197507 -0.07463,0.317359 -0.03827,0.249189 -0.06008,0.295954 -0.06072,0.130275 z"
     style="fill:#ff0000;stroke-width:0.0292186" />
  <path
     transform="matrix(1.0397553,0,0,1.0397553,-1.6424635,0)"
     id="path340"
     d=""
     style="fill:#ff0000;stroke-width:0.0281014" />
  <path
     id="path342"
     d="m 26.750641,21.023142 c 0.0096,-0.04151 0.02694,-0.166416 0.03872,-0.277577 0.01905,-0.179734 0.02395,-0.191596 0.04421,-0.107148 0.0157,0.06541 0.0399,0.09496 0.07776,0.09496 0.118361,0 0.192855,-0.152172 0.24316,-0.496715 0.0058,-0.04018 0.01246,0.01753 0.01465,0.128231 l 0.004,0.201277 -0.168007,0.203117 c -0.0924,0.111715 -0.191355,0.231514 -0.21989,0.26622 l -0.05188,0.0631 z"
     style="fill:#ff0000;stroke-width:0.0292186" />
  <path
     id="path344"
     d="m 27.17312,20.422908 c 0,-0.122153 0.0047,-0.132604 0.0385,-0.08632 0.03605,0.04929 0.04345,0.04678 0.116106,-0.03957 0.08994,-0.106887 0.135501,-0.255597 0.166195,-0.542457 l 0.02189,-0.204529 0.0042,0.262966 0.0042,0.262967 0.07185,-0.08765 c 0.03952,-0.04821 0.07232,-0.07437 0.0729,-0.05814 5.78e-4,0.01623 -0.11071,0.165009 -0.247307,0.33062 l -0.248357,0.30111 z"
     style="fill:#ff0000;stroke-width:0.0292186" />
  <path
     id="path346"
     d="m 27.815926,19.751164 c 0,-0.01209 0.02673,-0.07722 0.05941,-0.144722 0.03268,-0.0675 0.06776,-0.193213 0.07796,-0.279352 0.01698,-0.143402 0.0208,-0.149849 0.04528,-0.07641 0.03349,0.100461 0.10698,0.103175 0.197069,0.0073 0.03768,-0.04011 0.07417,-0.06728 0.08108,-0.06037 0.0069,0.0069 -0.09394,0.139237 -0.224124,0.294063 -0.130177,0.154827 -0.236686,0.271608 -0.236686,0.259515 z"
     style="fill:#ff0000;stroke-width:0.0292186" />
  <path
     transform="matrix(1.0397553,0,0,1.0397553,-1.6424635,0)"
     id="path348"
     d=""
     style="fill:#ff0000;stroke-width:0.0281014" />
  <path
     id="path350"
     d="m 27.138614,18.388589 c -0.0059,-0.04163 -0.0281,-0.06426 -0.06047,-0.06169 -0.06734,0.0053 -0.06335,-0.01578 0.02283,-0.120933 l 0.07185,-0.08765 1.46e-4,0.168007 c 1.47e-4,0.170346 -0.01729,0.222253 -0.03436,0.10227 z"
     style="fill:#ff0000;stroke-width:0.0292186" />
  <path
     id="path352"
     d="m 28.325761,19.086425 c 0.01041,-0.04607 0.02635,-0.120857 0.03541,-0.166199 0.01419,-0.07095 0.02384,-0.07785 0.06926,-0.04948 0.06072,0.03792 0.135021,-0.008 0.175809,-0.108604 0.0192,-0.04737 0.02448,-0.03738 0.02595,0.0492 0.0014,0.08057 -0.0085,0.104674 -0.03825,0.09327 -0.02354,-0.009 -0.09111,0.04264 -0.163604,0.125096 -0.114179,0.129882 -0.122072,0.134164 -0.104577,0.05673 z"
     style="fill:#ff0000;stroke-width:0.0292186" />
  <path
     id="path354"
     d="m 28.874937,19.177365 -0.240892,-0.24215 4.49e-4,-0.160091 c 2.45e-4,-0.08805 0.01319,-0.179814 0.02877,-0.20392 0.02062,-0.0319 0.02849,-0.008 0.02894,0.08765 8.23e-4,0.177581 0.04938,0.340786 0.108088,0.363314 0.0623,0.0239 0.09561,-0.03076 0.09673,-0.158784 6.73e-4,-0.07688 0.0079,-0.09138 0.02922,-0.05843 0.01558,0.0241 0.02852,0.08459 0.02877,0.134427 6.05e-4,0.122449 0.05463,0.275571 0.124501,0.352894 0.03164,0.03501 0.05276,0.07796 0.04692,0.09545 -0.0058,0.01749 -0.118999,-0.07717 -0.251489,-0.210356 z"
     style="fill:#ff0000;stroke-width:0.0292186" />
  <path
     id="path356"
     d="m 29.271299,19.571175 c -0.152742,-0.156798 -0.178986,-0.223902 -0.106245,-0.27166 0.03229,-0.0212 0.08078,-0.313239 0.08696,-0.523781 0.0026,-0.08839 0.01391,0.01277 0.02515,0.224792 0.01786,0.337104 0.03052,0.406105 0.100753,0.549675 0.04418,0.0903 0.07491,0.169589 0.06831,0.176198 -0.0067,0.0067 -0.08533,-0.06324 -0.174934,-0.155224 z"
     style="fill:#ff0000;stroke-width:0.0292186" />
  <path
     id="path358"
     d="m 28.488882,16.472937 c 5.12e-4,-0.01104 0.01914,-0.04411 0.0414,-0.07347 0.03844,-0.05071 0.04432,-0.05088 0.116857,-0.0033 0.04202,0.02753 0.07269,0.05299 0.06817,0.05656 -0.0241,0.01911 -0.227215,0.03729 -0.226427,0.02025 z"
     style="fill:#ff0000;stroke-width:0.0292186" />
  <path
     id="path360"
     d="m 29.297693,17.212542 c -0.0242,-0.140088 -0.02712,-0.336012 -0.005,-0.336012 0.03548,0 0.334766,0.237818 0.334766,0.266009 0,0.01673 -0.03464,0.0031 -0.07698,-0.03014 -0.131315,-0.103289 -0.182371,-0.07627 -0.214917,0.113761 l -0.01769,0.103258 z"
     style="fill:#ff0000;stroke-width:0.0292186" />
  <path
     id="path362"
     d="m 29.739259,17.825568 c -0.01348,-0.30801 -0.03409,-0.476059 -0.06916,-0.563669 -0.02747,-0.06865 -0.04501,-0.129293 -0.03898,-0.134752 0.006,-0.0055 0.08228,0.04325 0.169436,0.108259 0.143043,0.106675 0.15254,0.120379 0.09753,0.140728 -0.08532,0.03157 -0.102873,0.10651 -0.122453,0.523044 l -0.01717,0.365232 z"
     style="fill:#ff0000;stroke-width:0.0292186" />
  <path
     id="path364"
     d="m 30.215393,18.352065 c -0.0075,-0.450929 -0.04968,-0.742914 -0.121327,-0.840032 -0.03261,-0.04419 -0.05167,-0.08035 -0.04237,-0.08035 0.04262,0 0.364678,0.249405 0.364678,0.282411 0,0.02087 -0.01903,0.02985 -0.04342,0.02049 -0.07135,-0.02738 -0.106575,0.119865 -0.130232,0.54443 l -0.02198,0.39445 z"
     style="fill:#ff0000;stroke-width:0.0292186" />
  <path
     id="path366"
     d="m 30.878329,18.35518 c -0.01233,-0.234859 -0.0692,-0.397564 -0.138956,-0.397564 -0.03408,0 -0.09087,0.1736 -0.118554,0.362371 l -0.02185,0.148953 -0.0049,-0.160702 c -0.0073,-0.239159 -0.04628,-0.404269 -0.118413,-0.501836 -0.03543,-0.04792 -0.05947,-0.09207 -0.05342,-0.09812 0.006,-0.006 0.118768,0.06402 0.250496,0.155694 l 0.239502,0.166685 4.36e-4,0.284882 c 2.4e-4,0.156684 -0.0045,0.28488 -0.01051,0.28488 -0.006,0 -0.01674,-0.110359 -0.02382,-0.245243 z"
     style="fill:#ff0000;stroke-width:0.0292186" />
  <path
     id="path368"
     d="m 29.693056,19.995484 c -0.13249,-0.133182 -0.240891,-0.260348 -0.240891,-0.282591 0,-0.03156 0.01174,-0.02982 0.05343,0.0079 0.07443,0.06736 0.140783,0.06031 0.163527,-0.01738 0.01058,-0.03615 0.02855,-0.335282 0.03993,-0.664721 l 0.02068,-0.598981 0.01588,0.701246 c 0.01647,0.727502 0.03549,0.841864 0.163549,0.983365 0.02514,0.02778 0.041,0.06464 0.03525,0.08191 -0.0057,0.01727 -0.118866,-0.07758 -0.251355,-0.210754 z"
     style="fill:#ff0000;stroke-width:0.0292186" />
  <path
     id="path370"
     d="M 30.175324,20.478061 C 30.05078,20.352616 29.94888,20.231204 29.94888,20.208257 c 0,-0.03245 0.0078,-0.03393 0.03506,-0.0067 0.06119,0.06119 0.132302,0.03999 0.151948,-0.04529 0.01019,-0.04419 0.02815,-0.36304 0.03993,-0.708549 l 0.02142,-0.628199 0.01697,0.715854 c 0.01783,0.752327 0.04858,0.964396 0.150098,1.035507 0.03157,0.0221 0.05291,0.06157 0.04742,0.08771 -0.0071,0.03374 -0.07562,-0.01862 -0.236409,-0.180572 z"
     style="fill:#ff0000;stroke-width:0.0292186" />
  <path
     id="path372"
     d="m 30.556716,20.858247 -0.165995,-0.168698 0.05731,-0.123768 c 0.04005,-0.08649 0.06356,-0.222915 0.07805,-0.452887 l 0.02073,-0.32912 0.0196,0.365232 c 0.02353,0.438528 0.06701,0.692812 0.130443,0.762902 0.0258,0.02851 0.04217,0.06605 0.03638,0.08344 -0.0058,0.01739 -0.08523,-0.04431 -0.176528,-0.137097 z"
     style="fill:#ff0000;stroke-width:0.0292186" />
  <path
     id="path374"
     d="m 31.635565,21.967213 c -0.213023,-0.21428 -0.277206,-0.328062 -0.185056,-0.328062 0.05984,0 0.07344,-0.05671 0.107405,-0.447931 0.01692,-0.194846 0.03654,-0.36004 0.04359,-0.367097 0.0071,-0.0071 0.01351,0.143853 0.01433,0.335357 0.002,0.455099 0.03429,0.739634 0.08789,0.773548 0.09587,0.06066 0.115136,0.03132 0.115136,-0.175278 0,-0.111543 0.01314,-0.210931 0.02922,-0.220864 0.01884,-0.01164 0.02922,0.101958 0.02922,0.31968 0,0.185755 -0.0036,0.337737 -0.008,0.337737 -0.0044,0 -0.109582,-0.102187 -0.233749,-0.22709 z"
     style="fill:#ff0000;stroke-width:0.0292186" />
  <path
     id="path376"
     d="m 31.318052,21.647879 c -0.07277,-0.07811 -0.07686,-0.10015 -0.09096,-0.490834 -0.0081,-0.224983 -0.005,-0.474801 0.0071,-0.555152 0.01882,-0.12615 0.02232,-0.107495 0.02569,0.136674 0.0049,0.350326 0.05283,0.709734 0.111328,0.833735 0.06299,0.133508 0.0363,0.171502 -0.05309,0.07558 z"
     style="fill:#ff0000;stroke-width:0.0292186" />
  <path
     id="path378"
     d="m 31.228593,18.650325 c -0.01266,-0.15185 -0.03957,-0.262548 -0.08078,-0.332391 -0.03398,-0.05759 -0.0552,-0.111299 -0.04715,-0.119344 0.008,-0.008 0.113551,0.05606 0.234458,0.142471 0.172582,0.123332 0.21991,0.172798 0.220199,0.230143 3.54e-4,0.07019 -0.0019,0.0693 -0.05812,-0.0229 -0.123282,-0.202202 -0.206086,-0.155228 -0.231816,0.13151 l -0.01778,0.19818 z"
     style="fill:#ff0000;stroke-width:0.0292186" />
  <path
     id="path380"
     d="m 30.91707,18.18379 -0.004,-0.139057 0.09983,0.06544 c 0.111295,0.07296 0.113581,0.109589 0.0055,0.08894 -0.05695,-0.01089 -0.07396,2.13e-4 -0.08438,0.05505 -0.0072,0.03777 -0.01484,0.0061 -0.01703,-0.07037 z"
     style="fill:#ff0000;stroke-width:0.0292186" />
  <path
     id="path382"
     d="m 31.840271,19.046005 c -0.01844,-0.258323 -0.03949,-0.328708 -0.0983,-0.328708 -0.04923,0 -0.08183,0.07903 -0.114467,0.277576 l -0.02402,0.146093 -0.02432,-0.262966 c -0.03571,-0.386136 -0.03675,-0.384257 0.144733,-0.257369 l 0.153397,0.107244 v 0.272288 c 0,0.149758 -0.0047,0.272287 -0.01044,0.272287 -0.0057,0 -0.01771,-0.101897 -0.0266,-0.226445 z"
     style="fill:#ff0000;stroke-width:0.0292186" />
  <path
     id="path384"
     d="m 32.163318,19.332675 c -0.01529,-0.317587 -0.07529,-0.476616 -0.154881,-0.410558 -0.03699,0.0307 -0.0831,0.20642 -0.111075,0.423378 -0.0062,0.04821 -0.01328,-0.06749 -0.01568,-0.257113 -0.0034,-0.272159 0.0034,-0.339849 0.0327,-0.321404 0.02039,0.01285 0.09271,0.06127 0.160701,0.1076 l 0.123625,0.08423 v 0.33213 c 0,0.182672 -0.0048,0.332131 -0.0107,0.332131 -0.0059,0 -0.017,-0.130679 -0.02468,-0.290397 z"
     style="fill:#ff0000;stroke-width:0.0292186" />
  <path
     transform="matrix(1.0397553,0,0,1.0397553,-1.6424635,0)"
     id="path386"
     d=""
     style="fill:#ff0000;stroke-width:0.0281014" />
  <path
     id="path388"
     d="m 32.513885,19.628494 c -0.01399,-0.19582 -0.03633,-0.300777 -0.07966,-0.374206 -0.09523,-0.161404 -0.07266,-0.167927 0.117595,-0.03398 0.13154,0.09261 0.163853,0.127824 0.124179,0.135326 -0.09077,0.01717 -0.104528,0.0507 -0.123921,0.301969 l -0.01876,0.243043 z"
     style="fill:#ff0000;stroke-width:0.0292186" />
  <path
     id="path390"
     d="m 32.20162,19.130792 -0.0029,-0.156267 0.08529,0.05401 c 0.102499,0.0649 0.112905,0.110478 0.02548,0.11161 -0.04303,5.57e-4 -0.07078,0.02481 -0.0845,0.07387 -0.0148,0.05289 -0.02124,0.02992 -0.02335,-0.08322 z"
     style="fill:#ff0000;stroke-width:0.0292186" />
  <path
     id="path392"
     d="m 33.944428,21.025084 c -0.013,-0.342685 -0.0367,-0.594403 -0.06468,-0.686636 -0.02429,-0.08009 -0.04431,-0.154896 -0.04448,-0.166239 -1.74e-4,-0.01134 0.115497,0.06097 0.257049,0.160701 0.198695,0.139991 0.25503,0.194649 0.247123,0.239765 -0.0056,0.03214 -0.02098,0.203068 -0.0341,0.37984 l -0.02386,0.321404 -0.0042,-0.254224 c -0.0068,-0.420324 -0.09646,-0.704324 -0.175628,-0.556388 -0.04407,0.08233 -0.08998,0.389198 -0.114739,0.766784 l -0.02203,0.336014 z"
     style="fill:#ff0000;stroke-width:0.0292186" />
  <path
     id="path394"
     d="m 33.495359,20.25639 c -0.02312,-0.183486 -0.05121,-0.283159 -0.09738,-0.345615 -0.03569,-0.04828 -0.06034,-0.09232 -0.05476,-0.09789 0.01841,-0.01841 0.471995,0.320661 0.486265,0.363509 0.009,0.02702 -0.01498,0.01922 -0.06726,-0.02192 -0.146228,-0.115023 -0.183013,-0.08107 -0.215643,0.199059 l -0.01872,0.160702 z"
     style="fill:#ff0000;stroke-width:0.0292186" />
  <path
     id="path396"
     d="m 33.130716,20.352157 c -0.01256,-0.424182 -0.02667,-0.563227 -0.06496,-0.639992 -0.07647,-0.1533 -0.06043,-0.15902 0.111431,-0.03972 0.169421,0.117616 0.196999,0.168152 0.104901,0.192237 -0.06848,0.0179 -0.09042,0.142328 -0.11673,0.662027 l -0.0186,0.367363 z"
     style="fill:#ff0000;stroke-width:0.0292186" />
  <path
     id="path398"
     d="m 32.945518,19.757283 c 0.0125,-0.149225 0.0057,-0.181851 -0.04987,-0.241054 -0.07801,-0.08304 -0.03732,-0.08902 0.05913,-0.0087 0.06421,0.05347 0.06703,0.06716 0.03747,0.181643 -0.01758,0.06809 -0.03854,0.150105 -0.04658,0.182246 -0.008,0.03214 -0.0081,-0.01922 -1.57e-4,-0.114146 z"
     style="fill:#ff0000;stroke-width:0.0292186" />
  <path
     id="path400"
     d="m 35.088449,21.931337 c -0.01203,-0.586825 -0.02363,-0.736248 -0.06433,-0.828993 -0.06568,-0.14966 -0.0653,-0.150128 0.05024,-0.06201 0.09417,0.07183 0.101793,0.07317 0.133163,0.02341 0.02752,-0.04367 0.03064,-0.03512 0.01805,0.04948 -0.0522,0.350547 -0.08083,0.655063 -0.100305,1.066476 l -0.02213,0.467497 z"
     style="fill:#ff0000;stroke-width:0.0292186" />
  <path
     id="path402"
     d="m 34.620424,21.212397 c -0.01214,-0.21736 -0.03315,-0.329656 -0.07958,-0.425589 -0.0347,-0.07167 -0.06308,-0.140156 -0.06308,-0.152178 0,-0.01202 0.07991,0.0342 0.177576,0.102707 0.153039,0.10735 0.169602,0.127511 0.119864,0.145911 -0.08806,0.03258 -0.101771,0.07345 -0.120735,0.359686 l -0.01754,0.264738 z"
     style="fill:#ff0000;stroke-width:0.0292186" />
  <path
     id="path404"
     d="m 32.118195,22.449841 -0.240892,-0.242149 0.0029,-0.18931 0.0029,-0.18931 0.03627,0.184176 c 0.03971,0.201651 0.109306,0.304415 0.16706,0.246662 0.02037,-0.02037 0.04734,-0.232073 0.06683,-0.524683 l 0.03268,-0.490526 0.02034,0.482105 c 0.02013,0.477285 0.06797,0.776832 0.137437,0.860533 0.01976,0.0238 0.03132,0.05708 0.02569,0.07397 -0.0056,0.01688 -0.11863,-0.07828 -0.25112,-0.211462 z"
     style="fill:#ff0000;stroke-width:0.0292186" />
  <path
     id="path406"
     d="m 32.496543,22.828223 c -0.146854,-0.148701 -0.149865,-0.155044 -0.09565,-0.201471 0.06368,-0.05452 0.08067,-0.164774 0.116194,-0.753853 l 0.02378,-0.39445 0.0043,0.321404 c 0.0049,0.371767 0.05221,0.918819 0.09204,1.064834 0.0151,0.05535 0.02375,0.104322 0.01922,0.108846 -0.0045,0.0046 -0.07645,-0.06087 -0.159853,-0.14531 z"
     style="fill:#ff0000;stroke-width:0.0292186" />
  <path
     id="path408"
     d="m 33.428585,23.760245 c -0.07175,-0.07311 -0.110311,-0.132451 -0.09039,-0.139094 0.05155,-0.01719 0.08365,-0.222403 0.108919,-0.696384 l 0.02259,-0.423669 0.01916,0.58437 c 0.01053,0.321404 0.03332,0.62952 0.05064,0.684701 0.01731,0.05518 0.0276,0.104213 0.02284,0.108957 -0.0048,0.0048 -0.06494,-0.04875 -0.133768,-0.118881 z"
     style="fill:#ff0000;stroke-width:0.0292186" />
  <path
     id="path410"
     d="m 33.896082,24.227741 c -0.06883,-0.07013 -0.110044,-0.132539 -0.09159,-0.138691 0.06838,-0.02279 0.09151,-0.266575 0.111863,-1.178893 l 0.02086,-0.934993 0.01902,1.00804 c 0.01046,0.554422 0.03318,1.08612 0.0505,1.181551 0.01731,0.09543 0.02766,0.177333 0.02299,0.182004 -0.0047,0.0047 -0.06481,-0.04889 -0.133631,-0.119018 z"
     style="fill:#ff0000;stroke-width:0.0292186" />
  <path
     id="path412"
     d="m 34.255214,24.593978 c -0.109726,-0.123826 -0.116735,-0.141061 -0.07991,-0.196515 0.02638,-0.03973 0.05083,-0.226576 0.07058,-0.539302 0.01663,-0.263185 0.03421,-0.482498 0.03906,-0.487363 0.0049,-0.0049 0.0169,0.237932 0.02674,0.539549 0.0099,0.301616 0.03197,0.606009 0.04917,0.676428 0.0172,0.07042 0.02752,0.131387 0.02295,0.135484 -0.0046,0.0041 -0.06244,-0.05363 -0.128593,-0.128281 z"
     style="fill:#ff0000;stroke-width:0.0292186" />
  <path
     id="path414"
     d="m 34.62881,24.9897 -0.152314,-0.15423 0.04528,-0.09077 c 0.02923,-0.05858 0.05392,-0.231893 0.06964,-0.488688 0.01339,-0.218854 0.03274,-0.406307 0.043,-0.416563 0.01029,-0.01029 0.01864,0.1338 0.01864,0.320123 0,0.388798 0.04372,0.757476 0.104484,0.880978 0.02302,0.0468 0.03775,0.08921 0.03272,0.09423 -0.005,0.005 -0.07768,-0.06026 -0.161457,-0.145086 z"
     style="fill:#ff0000;stroke-width:0.0292186" />
  <path
     transform="matrix(1.0397553,0,0,1.0397553,-1.6424635,0)"
     id="path416"
     d=""
     style="fill:#ff0000;stroke-width:0.0281014" />
  <path
     id="path418"
     d="m 33.118799,23.450395 c -0.04603,-0.04805 -0.06808,-0.08735 -0.049,-0.08735 0.0233,0 0.03483,-0.06474 0.03513,-0.197224 3.13e-4,-0.138123 0.0089,-0.184091 0.02877,-0.153398 0.01557,0.0241 0.02884,0.09642 0.02947,0.160702 6.31e-4,0.06428 0.01326,0.169098 0.02805,0.232928 0.0148,0.06383 0.02338,0.119573 0.01909,0.123874 -0.0043,0.0043 -0.04548,-0.03148 -0.09151,-0.07953 z"
     style="fill:#ff0000;stroke-width:0.0292186" />
  <path
     id="path420"
     d="m 35.43872,21.149306 c -0.0174,-0.210129 -0.0559,-0.271435 -0.131214,-0.20893 -0.04459,0.03702 -0.04712,0.03398 -0.02659,-0.03192 0.01249,-0.04005 0.09367,-0.210875 0.180419,-0.379613 0.166597,-0.324059 0.170576,-0.318724 0.08717,0.116875 -0.02616,0.136597 -0.05814,0.34697 -0.0711,0.467497 l -0.02354,0.219138 z"
     style="fill:#ff0000;stroke-width:0.0292186" />
  <path
     id="path422"
     d="m 34.412011,20.654798 c -0.02813,-0.0074 -0.05114,-0.0388 -0.05114,-0.0699 0,-0.04923 0.0076,-0.05182 0.05843,-0.02005 0.03214,0.02007 0.05843,0.05306 0.05843,0.07329 0,0.02024 -0.0033,0.03527 -0.0073,0.03341 -0.0041,-0.0019 -0.03032,-0.0094 -0.05843,-0.01675 z"
     style="fill:#ff0000;stroke-width:0.0292186" />
  <path
     id="path424"
     d="m 36.029696,19.884577 c -0.0019,-0.16954 -0.01678,-0.321675 -0.03319,-0.338078 -0.02029,-0.02029 0.0035,-0.09924 0.07463,-0.246897 0.05745,-0.11939 0.0959,-0.177628 0.08544,-0.129418 -0.03955,0.182281 -0.0707,0.44448 -0.0729,0.61359 -0.0012,0.09642 -0.01315,0.227904 -0.02644,0.292185 -0.01909,0.0923 -0.02488,0.05206 -0.02753,-0.191382 z"
     style="fill:#ff0000;stroke-width:0.0292186" />
  <path
     id="path426"
     d="m 36.378202,19.330887 c -0.0088,-0.273143 -0.0342,-0.366466 -0.09823,-0.361174 -0.02701,0.0022 -0.04844,-0.0044 -0.04762,-0.01461 8.16e-4,-0.01029 0.06716,-0.143577 0.147423,-0.296244 0.08027,-0.152666 0.138546,-0.244705 0.129509,-0.204529 -0.02653,0.117977 -0.0723,0.489017 -0.09911,0.803509 l -0.0249,0.292186 z"
     style="fill:#ff0000;stroke-width:0.0292186" />
  <path
     id="path428"
     d="m 32.881199,23.210353 c -0.01489,-0.02047 -0.02002,-0.155564 -0.01139,-0.300196 l 0.01569,-0.262966 0.01856,0.292185 c 0.01019,0.160702 0.01534,0.29579 0.0114,0.300196 -0.004,0.0044 -0.01936,-0.0087 -0.03426,-0.02922 z"
     style="fill:#ff0000;stroke-width:0.0292186" />
  <path
     id="path430"
     d="m 35.117985,25.473779 c -0.06876,-0.07712 -0.07067,-0.09072 -0.05243,-0.372231 0.01041,-0.160702 0.02238,-0.371076 0.0266,-0.467497 0.0053,-0.122105 0.01493,-0.06157 0.03158,0.199438 0.01315,0.206113 0.0375,0.448296 0.05412,0.538186 0.01662,0.08989 0.026,0.167647 0.02086,0.172794 -0.0052,0.0051 -0.04147,-0.02667 -0.08072,-0.07069 z"
     style="fill:#ff0000;stroke-width:0.0292186" />
  <path
     id="path432"
     d="m 36.030636,24.604832 c 0.0037,-0.216926 0.04412,-0.553625 0.04968,-0.414443 0.0061,0.154564 0.05376,0.239262 0.108759,0.193613 0.06687,-0.0555 0.04838,0.0036 -0.05995,0.191612 l -0.101013,0.175311 z"
     style="fill:#ff0000;stroke-width:0.0292186" />
  <path
     id="path434"
     d="m 35.805459,25.116157 c 0.07026,-0.275606 0.103508,-0.480151 0.106856,-0.657417 0.0035,-0.187289 0.0059,-0.194678 0.02804,-0.08765 0.0133,0.06428 0.02493,0.179329 0.02586,0.255663 9.26e-4,0.07634 0.0151,0.138788 0.03149,0.138788 0.0306,0 -0.04467,0.164671 -0.15101,0.330386 -0.05262,0.08199 -0.05761,0.08445 -0.04124,0.02023 z"
     style="fill:#ff0000;stroke-width:0.0292186" />
  <path
     id="path436"
     d="m 35.395361,25.754696 c -0.04044,-0.04555 -0.04375,-0.0589 -0.01213,-0.0488 0.04942,0.01579 0.08978,-0.03152 0.248013,-0.290695 0.06147,-0.100679 0.117408,-0.17741 0.124312,-0.170506 0.01147,0.01147 -0.27956,0.572704 -0.296975,0.572704 -0.0042,0 -0.03261,-0.02822 -0.06322,-0.06271 z"
     style="fill:#ff0000;stroke-width:0.0292186" />
  <path
     id="path438"
     d="m 36.272231,24.246905 c 0.03146,-0.100014 0.07558,-0.367749 0.0801,-0.486094 0.0046,-0.119619 0.0047,-0.119495 0.02195,0.0259 l 0.01735,0.146093 0.09437,-0.146093 c 0.146992,-0.227554 0.112742,-0.07756 -0.05322,0.233029 -0.14035,0.262675 -0.196898,0.342679 -0.16056,0.227163 z"
     style="fill:#ff0000;stroke-width:0.0292186" />
  <path
     id="path440"
     d="m 36.581488,23.688122 c 0,-0.0194 0.0397,-0.111562 0.08821,-0.204789 0.105272,-0.202273 0.172466,-0.497253 0.177155,-0.777705 0.0025,-0.147438 0.01,-0.18414 0.02682,-0.131483 0.01286,0.04018 0.0247,0.11619 0.02631,0.168922 0.0035,0.115017 0.07482,0.1551 0.134871,0.0758 0.09747,-0.12871 0.02769,0.02926 -0.194449,0.44024 -0.261262,0.48336 -0.258913,0.479467 -0.258913,0.42902 z"
     style="fill:#ff0000;stroke-width:0.0292186" />
  <path
     id="path442"
     d="m 35.604416,20.297929 c -0.01,-0.01617 0.06045,-0.184484 0.156534,-0.37404 0.09608,-0.189554 0.175382,-0.330884 0.176215,-0.314066 0.0029,0.05971 -0.314888,0.717005 -0.332749,0.688106 z"
     style="fill:#ff0000;stroke-width:0.0292186" />
  <path
     id="path444"
     d="m 37.120992,22.669104 c 0.04852,-0.125169 0.103466,-0.380247 0.105156,-0.488244 0.0016,-0.100222 0.0058,-0.108117 0.02828,-0.0523 0.01454,0.03615 0.0391,0.06574 0.0546,0.06574 0.04578,0 0.158684,-0.177558 0.213264,-0.335402 0.04562,-0.131952 0.05082,-0.137485 0.05169,-0.05502 6.24e-4,0.05991 -0.07613,0.234542 -0.221526,0.50402 -0.122364,0.226788 -0.228957,0.412342 -0.236874,0.412342 -0.0079,0 -0.0055,-0.02301 0.0054,-0.05114 z"
     style="fill:#ff0000;stroke-width:0.0292186" />
  <path
     id="path446"
     d="m 37.571206,21.794855 c -0.006,-0.04546 -0.003,-0.135251 0.0068,-0.199532 0.01317,-0.08637 0.01891,-0.09591 0.02198,-0.03653 0.0056,0.108628 0.04502,0.101043 0.12197,-0.02345 0.111556,-0.1805 0.09365,-0.08795 -0.02544,0.13153 -0.104475,0.192541 -0.11524,0.203534 -0.125315,0.127976 z"
     style="fill:#ff0000;stroke-width:0.0292186" />
  <path
     id="path448"
     d="m 37.939496,21.098608 c 0.04398,-0.236825 0.07192,-0.502739 0.07672,-0.730463 l 0.0049,-0.233749 0.02364,0.245309 c 0.03456,0.358456 0.09596,0.380739 0.241944,0.0878 0.03952,-0.07931 0.07715,-0.128327 0.08362,-0.108926 0.01029,0.03091 -0.383067,0.792612 -0.43336,0.839132 -0.01057,0.0098 -0.0095,-0.03481 0.0025,-0.0991 z"
     style="fill:#ff0000;stroke-width:0.0292186" />
  <path
     id="path450"
     d="m 37.192165,17.648386 c -0.0051,-0.305404 -0.06973,-0.41185 -0.154739,-0.255035 -0.0245,0.04519 -0.04438,0.06244 -0.04418,0.03834 3.72e-4,-0.04586 0.402178,-0.849687 0.404838,-0.809892 8.39e-4,0.01256 -0.02425,0.09936 -0.05576,0.192879 -0.03607,0.107077 -0.06776,0.318745 -0.08557,0.571625 -0.03008,0.427022 -0.05978,0.547535 -0.06459,0.262093 z"
     style="fill:#ff0000;stroke-width:0.0292186" />
  <path
     id="path452"
     d="m 36.871149,18.103708 -0.01208,-0.306795 -0.06778,0.12701 c -0.130113,0.243815 -0.09267,0.09851 0.05229,-0.202954 0.142855,-0.297074 0.177926,-0.32887 0.11574,-0.104932 -0.017,0.06122 -0.04107,0.265019 -0.05349,0.452887 l -0.02258,0.341579 z"
     style="fill:#ff0000;stroke-width:0.0292186" />
  <path
     id="path454"
     d="m 37.542787,16.947141 c -0.0037,-0.224919 -0.0322,-0.320023 -0.09408,-0.314911 -0.02701,0.0022 -0.04911,-0.0069 -0.04911,-0.0202 0,-0.01334 0.07232,-0.171607 0.160702,-0.3517 0.163075,-0.332275 0.194848,-0.360385 0.116888,-0.103414 -0.02375,0.07828 -0.05748,0.321437 -0.07497,0.54034 -0.01748,0.218903 -0.03735,0.403576 -0.04416,0.410383 -0.0068,0.0068 -0.01368,-0.06542 -0.01529,-0.160499 z"
     style="fill:#ff0000;stroke-width:0.0292186" />
  <path
     id="path456"
     d="m 38.039857,15.751616 -0.01205,-0.292185 -0.06445,0.116873 c -0.05276,0.09568 -0.06468,0.104889 -0.06574,0.05079 -0.0011,-0.05665 0.44852,-1.000392 0.476614,-1.000392 0.0055,0 0.01009,0.13477 0.01009,0.29949 -2.2e-5,0.275124 -0.0028,0.290121 -0.0343,0.184332 -0.04278,-0.143697 -0.08725,-0.160821 -0.142069,-0.05471 -0.07283,0.140959 -0.109073,0.32099 -0.132947,0.660418 l -0.02304,0.327571 z"
     style="fill:#ff0000;stroke-width:0.0292186" />
  <path
     id="path458"
     d="m 37.722481,15.970754 c -7.08e-4,-0.0241 0.03711,-0.122717 0.08403,-0.219138 0.04807,-0.09877 0.0857,-0.149796 0.08619,-0.116874 4.74e-4,0.03214 -0.03735,0.130752 -0.08403,0.219139 -0.04669,0.08839 -0.08548,0.140979 -0.08619,0.116873 z"
     style="fill:#ff0000;stroke-width:0.0292186" />
  <path
     id="path460"
     d="m 39.182254,18.841476 c 1.74e-4,-0.01205 0.02072,-0.08765 0.04565,-0.168007 0.02493,-0.08035 0.05318,-0.296913 0.06278,-0.481251 0.01064,-0.204349 0.02623,-0.312685 0.03995,-0.277576 0.01237,0.03167 0.02361,0.103602 0.02495,0.159847 0.0042,0.172254 0.0324,0.240165 0.09333,0.224231 0.02992,-0.0078 0.05441,-0.0093 0.05441,-0.0031 0,0.0217 -0.297574,0.567746 -0.309399,0.567746 -0.0065,0 -0.01186,-0.0099 -0.01169,-0.02192 z"
     style="fill:#ff0000;stroke-width:0.0292186" />
  <path
     id="path462"
     d="m 38.753868,19.608463 c 0.01,-0.04821 0.02794,-0.17312 0.03983,-0.277576 0.02043,-0.179375 0.02252,-0.183431 0.03747,-0.07304 l 0.01584,0.116875 0.09386,-0.146093 c 0.138873,-0.216148 0.114896,-0.09092 -0.03628,0.189494 -0.151279,0.280599 -0.175919,0.311717 -0.150723,0.190347 z"
     style="fill:#ff0000;stroke-width:0.0292186" />
  <path
     id="path464"
     d="m 38.377723,20.15631 c 0.01838,-0.121171 0.03349,-0.16624 0.03917,-0.116874 0.01238,0.107633 0.04614,0.10121 0.123188,-0.02345 0.108936,-0.176264 0.09428,-0.09108 -0.0221,0.128421 -0.14164,0.267162 -0.179479,0.270374 -0.140265,0.0119 z"
     style="fill:#ff0000;stroke-width:0.0292186" />
  <path
     id="path466"
     d="m 39.826376,17.638857 c 0,-0.02176 0.02842,-0.08555 0.06314,-0.141752 0.149356,-0.241663 0.150665,-0.26316 0.168534,-2.768138 0.01367,-1.917129 0.02062,-2.209212 0.03859,-1.624202 0.01205,0.392304 0.02218,0.977406 0.02249,1.300225 6.55e-4,0.665508 0.0469,2.012351 0.0757,2.205018 0.01352,0.09035 0.03515,0.132119 0.07369,0.142196 0.03001,0.0078 0.05456,0.0184 0.05456,0.02347 0,0.01528 -0.415937,0.78314 -0.457795,0.845128 -0.02385,0.03531 -0.03892,0.04231 -0.03892,0.01806 z"
     style="fill:#ff0000;stroke-width:0.0292186" />
  <path
     id="path468"
     d="m 39.574822,18.08015 c 0.02388,-0.135684 0.07539,-0.711013 0.08553,-0.955263 0.0077,-0.184172 0.009,-0.177992 0.01421,0.06209 0.0078,0.364618 0.02848,0.457741 0.0975,0.439692 0.03437,-0.0089 0.05432,0.0012 0.05432,0.02785 0,0.0465 -0.114105,0.281086 -0.20813,0.427885 l -0.06043,0.09434 z"
     style="fill:#ff0000;stroke-width:0.0292186" />
  <path
     id="path470"
     d="m 36.057185,11.425829 c -0.0241,-0.0051 -0.09313,-0.01732 -0.153397,-0.02716 -0.06026,-0.0099 -0.109571,-0.03016 -0.109571,-0.04518 0,-0.02833 0.169939,-0.122649 0.285198,-0.158291 0.06194,-0.01915 0.06392,-0.01575 0.03189,0.05457 -0.02858,0.06274 -0.02551,0.08456 0.01882,0.133554 0.05361,0.05924 0.04097,0.06661 -0.07294,0.04251 z"
     style="fill:#ff0000;stroke-width:0.0292186" />
  <path
     id="path472"
     d="m 36.626946,11.500318 c -0.06428,-0.01151 -0.0879,-0.02279 -0.0525,-0.02507 0.0354,-0.0023 0.08776,-0.03514 0.11634,-0.07303 l 0.05197,-0.06888 0.08088,0.08659 c 0.04449,0.04762 0.08088,0.09177 0.08088,0.09811 0,0.01605 -0.138314,0.0073 -0.277576,-0.0177 z"
     style="fill:#ff0000;stroke-width:0.0292186" />
  <path
     id="path474"
     d="m 37.21777,10.925603 c -0.01153,-0.05724 -0.04144,-0.09984 -0.0783,-0.111539 -0.0328,-0.01041 -0.05964,-0.03079 -0.05964,-0.04529 0,-0.02476 0.419613,-0.232664 0.469579,-0.232664 0.02985,0 0.04531,0.108446 0.03077,0.215791 l -0.01143,0.0843 -0.03852,-0.09161 c -0.04187,-0.09957 -0.126183,-0.121589 -0.186639,-0.04874 -0.01957,0.02358 -0.05169,0.105757 -0.07137,0.182616 -0.03577,0.139635 -0.03581,0.139673 -0.05445,0.04713 z"
     style="fill:#ff0000;stroke-width:0.0292186" />
  <path
     id="path476"
     d="m 36.437025,11.081006 c 0,-0.03351 0.07243,-0.08267 0.222788,-0.151187 0.122532,-0.05584 0.228887,-0.101522 0.236345,-0.101522 0.0075,0 -0.02048,0.04046 -0.06208,0.0899 -0.0416,0.04944 -0.07605,0.111898 -0.07654,0.138788 -8.06e-4,0.04431 -0.0036,0.04411 -0.03067,-0.0023 -0.04066,-0.06982 -0.140644,-0.06424 -0.222219,0.01239 -0.05819,0.05467 -0.06763,0.0566 -0.06763,0.01387 z"
     style="fill:#ff0000;stroke-width:0.0292186" />
  <path
     id="path478"
     d="m 36.378589,11.184759 c 0,-0.01959 -0.04189,-0.0361 -0.09496,-0.03743 l -0.09496,-0.0024 0.116874,-0.05468 c 0.116151,-0.05434 0.116935,-0.05431 0.126653,0.0057 0.0054,0.03323 -0.0045,0.07467 -0.02192,0.0921 -0.02278,0.02278 -0.03169,0.02182 -0.03169,-0.0033 z"
     style="fill:#ff0000;stroke-width:0.0292186" />
  <path
     id="path480"
     d="m 38.367615,10.433842 c -0.0054,-0.103705 -0.05063,-0.141232 -0.167579,-0.139165 -0.11073,0.002 -0.109551,7.27e-4 0.09237,-0.0963 0.236402,-0.113597 0.277152,-0.122358 0.20662,-0.04442 -0.02794,0.03087 -0.06825,0.119621 -0.08957,0.197226 -0.02133,0.07761 -0.04016,0.1148 -0.04184,0.08266 z"
     style="fill:#ff0000;stroke-width:0.0292186" />
  <path
     id="path482"
     d="m 37.930777,10.737692 c -0.0059,-0.171846 -0.05889,-0.289228 -0.130643,-0.289332 -0.03827,-5.5e-5 0.0057,-0.03279 0.112428,-0.08364 0.09642,-0.04596 0.179756,-0.07981 0.185189,-0.07525 0.0054,0.0046 -0.01719,0.04549 -0.05027,0.09095 -0.03463,0.04759 -0.07138,0.163214 -0.08662,0.272568 -0.01824,0.130847 -0.02759,0.157196 -0.03008,0.08471 z"
     style="fill:#ff0000;stroke-width:0.0292186" />
  <path
     id="path484"
     d="m 39.45384,11.888241 c -0.09154,-0.01136 -0.136908,-0.06652 -0.05471,-0.06652 0.07171,0 0.110219,-0.08074 0.149239,-0.312878 l 0.03827,-0.227665 0.003,0.3141 c 0.0017,0.172754 -0.0069,0.311995 -0.01892,0.309423 -0.01205,-0.0026 -0.06464,-0.01 -0.116873,-0.01646 z"
     style="fill:#ff0000;stroke-width:0.0292186" />
  <path
     id="path486"
     d="m 38.859565,14.144714 -0.01201,-0.321285 -0.06524,0.102145 c -0.06155,0.09637 -0.06519,0.09801 -0.06423,0.0291 10e-4,-0.07194 0.37336,-0.834527 0.376313,-0.770701 8.34e-4,0.01804 -0.02353,0.09037 -0.05413,0.160702 -0.0772,0.177405 -0.117859,0.397947 -0.145255,0.787849 l -0.02344,0.333474 z"
     style="fill:#ff0000;stroke-width:0.0292186" />
  <path
     id="path488"
     d="m 38.385831,15.053763 0.01175,-0.493322 0.151778,-0.32358 c 0.09187,-0.195872 0.155878,-0.302282 0.162169,-0.269616 0.0057,0.02969 -0.04339,0.167189 -0.109128,0.305578 -0.124015,0.261075 -0.150733,0.39167 -0.20391,0.996687 -0.02016,0.22938 -0.02235,0.191918 -0.01265,-0.215747 z"
     style="fill:#ff0000;stroke-width:0.0292186" />
  <path
     id="path490"
     d="m 40.820847,15.7784 c 5.73e-4,-0.0308 0.02067,-0.134893 0.04466,-0.231314 0.02399,-0.09642 0.05284,-0.398833 0.06411,-0.672027 l 0.0205,-0.496715 0.01931,0.343661 c 0.02674,0.475831 0.04414,0.557137 0.115214,0.53855 0.03111,-0.0081 0.05656,-0.01143 0.05656,-0.0073 0,0.01103 -0.295879,0.554694 -0.309658,0.568976 -0.0064,0.0067 -0.01128,-0.01303 -0.01071,-0.04383 z"
     style="fill:#ff0000;stroke-width:0.0292186" />
  <path
     id="path492"
     d="m 40.383111,16.613562 c -8.5e-5,-0.0241 0.01414,-0.102998 0.03161,-0.175311 0.01747,-0.07231 0.04125,-0.47334 0.05282,-0.891165 l 0.02105,-0.759682 0.0062,0.774291 0.0062,0.774291 0.0704,-0.131483 c 0.04704,-0.08785 0.07068,-0.11209 0.07125,-0.07304 4.65e-4,0.03214 -0.05772,0.163624 -0.129295,0.292185 -0.07158,0.128561 -0.13021,0.214026 -0.130294,0.18992 z"
     style="fill:#ff0000;stroke-width:0.0292186" />
  <path
     id="path494"
     d="m 41.638277,14.271135 c -1.93e-4,-0.02683 0.0204,-0.129796 0.04577,-0.228824 0.02537,-0.09903 0.05536,-0.366344 0.06663,-0.594035 l 0.0205,-0.413984 0.022,0.262967 c 0.03367,0.402445 0.04957,0.482105 0.09616,0.482105 0.03213,0 0.02545,0.03199 -0.02895,0.138789 -0.132235,0.259597 -0.221768,0.401878 -0.222121,0.352982 z"
     style="fill:#ff0000;stroke-width:0.0292186" />
  <path
     id="path496"
     d="m 41.199868,15.106374 c 1.21e-4,-0.01473 0.01436,-0.112249 0.03165,-0.216705 0.01728,-0.104456 0.04144,-0.413442 0.05369,-0.686636 l 0.02226,-0.496715 0.0054,0.555152 0.0054,0.555153 0.159303,-0.292186 c 0.08762,-0.160701 0.159548,-0.267862 0.159845,-0.238132 2.98e-4,0.02973 -0.09314,0.226955 -0.207654,0.438278 -0.221676,0.409107 -0.230204,0.423272 -0.229862,0.381791 z"
     style="fill:#ff0000;stroke-width:0.0292186" />
  <path
     id="path498"
     d="m 42.27288,13.831758 c -0.103799,-0.144654 -0.125961,-0.195164 -0.103893,-0.23679 0.01543,-0.0291 0.03681,-0.24605 0.04752,-0.482106 l 0.01946,-0.429192 0.01925,0.39445 c 0.02133,0.437081 0.06076,0.69255 0.1276,0.826518 0.0752,0.150759 0.02817,0.119572 -0.109929,-0.07288 z"
     style="fill:#ff0000;stroke-width:0.0292186" />
  <path
     id="path500"
     d="m 42.711706,14.436092 c -0.108473,-0.149736 -0.197225,-0.279866 -0.197225,-0.289177 0,-0.0094 0.01819,-0.01693 0.04043,-0.01693 0.06337,0 0.07888,-0.09727 0.09705,-0.608579 0.01975,-0.555823 0.06595,-0.57903 0.06662,-0.03346 5.99e-4,0.489286 0.04531,0.823133 0.137935,1.029794 0.04156,0.09274 0.07036,0.17356 0.064,0.179608 -0.0063,0.006 -0.100316,-0.111518 -0.208792,-0.261256 z"
     style="fill:#ff0000;stroke-width:0.0292186" />
  <path
     id="path502"
     d="m 44.329302,16.657947 c -0.07448,-0.103982 -0.08971,-0.143952 -0.06151,-0.161377 0.06621,-0.04092 0.08628,-0.530406 0.07367,-1.796822 l -0.01222,-1.227178 0.05625,1.519364 c 0.03093,0.83565 0.05322,1.583459 0.04952,1.661796 l -0.0068,0.142433 z"
     style="fill:#ff0000;stroke-width:0.0292186" />
  <path
     id="path504"
     d="m 43.885835,16.05103 c -0.150784,-0.211407 -0.175644,-0.261303 -0.09424,-0.189148 0.05761,0.05107 0.05875,0.04918 0.07732,-0.128465 0.0104,-0.09916 0.02146,-0.523509 0.02465,-0.942995 0.0032,-0.419485 0.0094,-0.664087 0.01364,-0.543561 0.02327,0.650436 0.07507,1.616552 0.09555,1.782331 0.01291,0.104457 0.02103,0.192974 0.01806,0.196708 -0.003,0.0037 -0.06373,-0.07496 -0.134982,-0.17487 z"
     style="fill:#ff0000;stroke-width:0.0292186" />
  <path
     id="path506"
     d="m 43.291752,15.23568 c -0.0385,-0.05496 -0.04635,-0.149966 -0.04425,-0.535128 0.0015,-0.257565 0.0128,-0.534042 0.02532,-0.614393 0.01693,-0.108687 0.02408,-0.03013 0.02794,0.306795 0.0028,0.249088 0.01662,0.5515 0.03059,0.672026 0.01397,0.120526 0.0213,0.223277 0.0163,0.228333 -0.005,0.0051 -0.03016,-0.02088 -0.05591,-0.05763 z"
     style="fill:#ff0000;stroke-width:0.0292186" />
  <path
     id="path508"
     d="m 43.557378,15.599408 c -0.0572,-0.07698 -0.09172,-0.144361 -0.07672,-0.149717 0.01499,-0.0054 0.02726,-0.166424 0.02726,-0.357927 0,-0.191503 0.01115,-0.348188 0.02477,-0.348188 0.01362,0 0.03357,0.164848 0.04434,0.366329 0.01077,0.201479 0.03849,0.421201 0.06159,0.488269 0.0231,0.06706 0.03768,0.126277 0.03238,0.131577 -0.0053,0.0053 -0.05643,-0.05335 -0.113622,-0.130343 z"
     style="fill:#ff0000;stroke-width:0.0292186" />
  <path
     id="path510"
     d="m 37.708032,11.64957 c -0.10896,-0.01656 -0.11733,-0.02469 -0.123593,-0.120033 -0.0057,-0.08742 -0.0027,-0.09285 0.02065,-0.0374 0.02893,0.06857 0.149584,0.115605 0.206433,0.08047 0.01857,-0.01148 0.05168,-0.06202 0.07356,-0.112321 l 0.0398,-0.09146 0.0011,0.09688 c 6.29e-4,0.05329 0.01475,0.122314 0.03139,0.153397 0.0267,0.04989 0.0207,0.05603 -0.05114,0.05237 -0.04476,-0.0023 -0.133973,-0.01215 -0.198253,-0.02192 z"
     style="fill:#ff0000;stroke-width:0.0292186" />
  <path
     id="path512"
     d="m 37.416862,11.589391 c 0.07242,-0.02935 0.119432,-0.08437 0.138544,-0.162119 0.0079,-0.03214 0.01589,-0.0026 0.01776,0.06574 l 0.0034,0.124179 -0.109569,-0.0019 c -0.08707,-0.0015 -0.09736,-0.0068 -0.05012,-0.02595 z"
     style="fill:#ff0000;stroke-width:0.0292186" />
  <path
     id="path514"
     d="m 38.467714,11.755627 c -0.112491,-0.01592 -0.210311,-0.03416 -0.217376,-0.04053 -0.0071,-0.0063 0.01505,-0.03113 0.04914,-0.055 0.03409,-0.02387 0.06734,-0.07288 0.0739,-0.108896 0.01075,-0.05911 0.0155,-0.05622 0.04874,0.02965 0.04933,0.127386 0.165282,0.159568 0.240456,0.06673 l 0.05351,-0.06608 v 0.105502 c 0,0.05803 -0.0099,0.103716 -0.02192,0.101532 -0.01205,-0.0022 -0.113952,-0.01699 -0.226443,-0.03291 z"
     style="fill:#ff0000;stroke-width:0.0292186" />
  <path
     id="path516"
     d="m 39.227396,11.859916 c -0.153389,-0.0201 -0.176316,-0.03495 -0.118871,-0.07695 0.02794,-0.02043 0.06075,-0.08253 0.07291,-0.137985 l 0.02211,-0.100835 0.03497,0.124179 c 0.01923,0.0683 0.0462,0.124179 0.05993,0.124179 0.01373,0 0.03253,0.01972 0.04179,0.04383 0.0093,0.0241 0.0074,0.04186 -0.0042,0.03945 -0.01155,-0.0024 -0.06044,-0.0096 -0.108653,-0.01587 z"
     style="fill:#ff0000;stroke-width:0.0292186" />
  <path
     transform="matrix(1.0397553,0,0,1.0397553,-1.6424635,0)"
     id="path518"
     d=""
     style="fill:#ff0000;stroke-width:0.0281014" />
  <path
     id="path520"
     d="m 39.333889,13.087859 c -0.0024,-0.166864 -0.01696,-0.301324 -0.03326,-0.306794 -0.01597,-0.0054 0.0094,-0.08863 0.0562,-0.185052 0.09043,-0.185985 0.109074,-0.18776 0.05848,-0.0056 -0.017,0.06122 -0.04132,0.26502 -0.05405,0.452887 l -0.02313,0.341578 z"
     style="fill:#ff0000;stroke-width:0.0292186" />
  <path
     id="path522"
     d="m 38.718961,10.240195 c -0.0033,-0.08975 -0.07084,-0.15618 -0.134001,-0.131943 -0.02431,0.0094 -0.0442,0.0067 -0.0442,-0.0059 0,-0.01835 0.194225,-0.1124167 0.364398,-0.176474 0.01653,-0.00624 2.83e-4,0.021117 -0.0361,0.060763 -0.03638,0.039636 -0.08439,0.130194 -0.106681,0.201234 -0.03233,0.103039 -0.04111,0.113634 -0.04341,0.05239 z"
     style="fill:#ff0000;stroke-width:0.0292186" />
  <path
     id="path524"
     d="M 39.18437,9.959041 C 39.16472,9.906814 39.12691,9.862978 39.10036,9.861637 c -0.04243,-0.00218 0.326424,-0.1950103 0.3827,-0.2001041 0.01205,-0.00104 0.02192,0.02249 0.02192,0.052404 0,0.040842 -0.01657,0.051218 -0.06656,0.041663 -0.08256,-0.015783 -0.165787,0.070017 -0.196194,0.2022459 l -0.02212,0.096157 z"
     style="fill:#ff0000;stroke-width:0.0292186" />
  <path
     transform="matrix(1.0397553,0,0,1.0397553,-1.6424635,0)"
     id="path526"
     d=""
     style="fill:#ff0000;stroke-width:0.0281014" />
  <path
     id="path528"
     d="m 39.523063,9.8403738 c -0.01334,-0.1014282 -0.01957,-0.1871508 -0.01386,-0.190503 0.07644,-0.044876 0.298104,-0.1360052 0.307636,-0.1264727 0.007,0.00697 -0.03255,0.04053 -0.08776,0.074644 -0.107712,0.066565 -0.158163,0.1613731 -0.172678,0.3244785 -0.0072,0.081017 -0.01414,0.063955 -0.03335,-0.082141 z"
     style="fill:#ff0000;stroke-width:0.0292186" />
  <path
     id="path530"
     d="m 40.05282,11.225969 c -0.01205,-0.07857 -0.02192,-0.508089 -0.02192,-0.954472 0,-0.5699482 -0.0097,-0.8148335 -0.03251,-0.8224445 -0.01788,-0.00593 0.04786,-0.045521 0.146093,-0.087901 0.09824,-0.04238 0.178607,-0.070849 0.178607,-0.063238 0,0.00759 -0.03357,0.042775 -0.0746,0.078169 -0.113958,0.098288 -0.134815,0.2542773 -0.155104,1.1600365 -0.01218,0.543767 -0.02625,0.783153 -0.04057,0.689862 z"
     style="fill:#ff0000;stroke-width:0.0292186" />
  <path
     id="path532"
     d="m 40.474929,11.266571 c -0.0035,-0.05625 -0.01974,-0.457271 -0.03592,-0.891166 -0.01619,-0.4338953 -0.04303,-0.8414939 -0.05962,-0.9057747 -0.01659,-0.064278 -0.03276,-0.1346462 -0.03592,-0.1563667 -0.0032,-0.022188 0.06147,-0.069477 0.147643,-0.1079162 0.08437,-0.037629 0.153397,-0.056022 0.153397,-0.040862 0,0.01516 -0.0099,0.027761 -0.02192,0.028011 -0.01205,2.464e-4 -0.04163,0.012903 -0.06574,0.028125 -0.03715,0.023467 -0.04624,0.1891335 -0.05963,1.0879426 -0.0087,0.583147 -0.01872,1.014247 -0.02228,0.958002 z"
     style="fill:#ff0000;stroke-width:0.0292186" />
  <path
     id="path534"
     d="m 41.310036,10.346187 c -0.02128,-1.1295666 -0.03976,-1.343777 -0.121071,-1.4032323 -0.03793,-0.02773 -0.0076,-0.050407 0.177943,-0.1332155 0.123009,-0.054889 0.234309,-0.1041741 0.247336,-0.1095299 0.01303,-0.00541 0.02369,0.00946 0.02369,0.032867 0,0.02381 -0.03804,0.05022 -0.08626,0.059859 -0.154739,0.030943 -0.179867,0.2288054 -0.202823,1.5970727 l -0.01789,1.066476 z"
     style="fill:#ff0000;stroke-width:0.0292186" />
  <path
     transform="matrix(1.0397553,0,0,1.0397553,-1.6424635,0)"
     id="path536"
     d=""
     style="fill:#ff0000;stroke-width:0.0281014" />
  <path
     id="path538"
     d="m 40.940518,9.6829028 c -0.0046,-0.2655888 -0.05339,-0.5184916 -0.103913,-0.537881 -0.01976,-0.00759 -0.07108,-4.304e-4 -0.11402,0.015898 -0.04295,0.016324 -0.07809,0.018102 -0.07809,0.00395 0,-0.02512 0.361559,-0.2065609 0.411617,-0.2065609 0.01387,0 0.01093,0.036163 -0.0066,0.080352 -0.01746,0.04419 -0.04828,0.2578531 -0.06849,0.4748012 -0.03363,0.360951 -0.03707,0.3753412 -0.04058,0.1694447 z"
     style="fill:#ff0000;stroke-width:0.0292186" />
  <path
     id="path540"
     d="m 41.752142,9.1433852 c -0.0104,-0.1490894 -0.03491,-0.2665298 -0.06541,-0.3130713 -0.06724,-0.1026135 -0.06204,-0.1266256 0.03866,-0.1786996 0.149236,-0.077171 0.233946,-0.1033933 0.233946,-0.072429 0,0.015669 -0.01644,0.028697 -0.03653,0.028947 -0.105627,0.00125 -0.122688,0.052373 -0.138428,0.4144257 l -0.01563,0.3594184 z"
     style="fill:#ff0000;stroke-width:0.0292186" />
  <path
     id="path542"
     d="m 42.224685,8.9729153 c -0.0031,-0.1124912 -0.02172,-0.2505488 -0.04132,-0.3067944 -0.03175,-0.091134 -0.04588,-0.1014593 -0.129834,-0.094846 -0.05181,0.00406 -0.0942,-3.32e-5 -0.0942,-0.00915 0,-0.014598 0.36011,-0.1881988 0.390392,-0.1881988 0.0065,0 -0.0056,0.050542 -0.02687,0.1123216 -0.02128,0.061772 -0.0508,0.2425666 -0.06559,0.4017552 l -0.0269,0.2894325 z"
     style="fill:#ff0000;stroke-width:0.0292186" />
  <path
     id="path544"
     d="m 42.69376,8.6588156 -0.004,-0.3433178 -0.09496,-0.0025 c -0.0869,-0.00229 -0.0776,-0.010772 0.10957,-0.099785 0.112491,-0.053495 0.209452,-0.092372 0.215469,-0.086383 0.006,0.00603 -0.02277,0.050958 -0.06398,0.09992 -0.07605,0.090376 -0.09443,0.1661509 -0.135475,0.558462 -0.02244,0.214489 -0.02274,0.2130708 -0.02666,-0.1263937 z"
     style="fill:#ff0000;stroke-width:0.0292186" />
  <path
     id="path546"
     d="m 43.499246,8.7099487 c -0.02312,-0.604703 -0.0404,-0.7742912 -0.0789,-0.7742912 -0.04341,0 -0.0594,0.1361123 -0.07809,0.6647218 -0.0104,0.2932806 -0.02992,0.5332374 -0.04347,0.5332374 -0.01355,0 -0.02463,-0.2366701 -0.02463,-0.5259332 V 8.0817493 h -0.08765 c -0.142059,0 -0.102197,-0.043711 0.138789,-0.1521983 l 0.226443,-0.1019376 0.0076,0.1197631 c 0.0042,0.065868 -0.0026,0.3958786 -0.01508,0.7333519 l -0.02268,0.6135898 z"
     style="fill:#ff0000;stroke-width:0.0292186" />
  <path
     transform="matrix(1.0397553,0,0,1.0397553,-1.6424635,0)"
     id="path548"
     d=""
     style="fill:#ff0000;stroke-width:0.0281014" />
  <path
     id="path550"
     d="m 43.850207,8.1858444 c -0.01214,-0.1436255 -0.04153,-0.3001389 -0.06531,-0.3478075 -0.02378,-0.047662 -0.04323,-0.089606 -0.04323,-0.093193 0,-0.00884 0.284203,-0.1305923 0.304907,-0.1305923 0.009,0 0.01515,0.075601 0.01351,0.1680058 -0.0026,0.1483668 -0.0057,0.1565892 -0.02608,0.070339 -0.02477,-0.1047605 -0.07518,-0.1730589 -0.105405,-0.142827 -0.01019,0.01019 -0.02706,0.1802686 -0.03744,0.3778928 l -0.01886,0.3593166 z"
     style="fill:#ff0000;stroke-width:0.0292186" />
  <path
     id="path552"
     d="m 44.232367,13.399524 c 0.01922,-1.859076 -0.05038,-4.3599396 -0.142727,-5.127854 -0.0407,-0.3384185 -0.03613,-0.6626725 0.0098,-0.6910162 0.01928,-0.011916 0.03848,-0.018227 0.04268,-0.014026 0.01881,0.018809 0.185319,5.4772512 0.169467,5.5553232 -0.0098,0.04821 -0.03462,0.422938 -0.0552,0.832728 l -0.0374,0.745072 z"
     style="fill:#ff0000;stroke-width:0.0292186" />
  <path
     id="path554"
     d="m 44.124582,16.377732 c -0.0503,-0.06803 -0.05807,-0.09835 -0.03296,-0.128607 0.01807,-0.02177 0.04205,-0.136047 0.05328,-0.253939 l 0.02042,-0.214351 0.01468,0.336012 c 0.0081,0.184807 0.01371,0.339139 0.01253,0.342959 -0.0011,0.0038 -0.03177,-0.03312 -0.06796,-0.08208 z"
     style="fill:#ff0000;stroke-width:0.0292186" />
  <path
     transform="matrix(1.0397553,0,0,1.0397553,-1.6424635,0)"
     id="path558"
     d=""
     style="fill:#ff0000;stroke-width:0.0281014" />
  <path
     id="path560"
     d="m 40.646321,16.116847 c 0.0014,-0.0659 0.170513,-0.373395 0.172106,-0.312935 0.0012,0.0483 -0.07224,0.209023 -0.143136,0.312935 -0.02658,0.03896 -0.0298,0.03896 -0.02897,0 z"
     style="fill:#ff0000;stroke-width:0.0292186" />
  <path
     id="path562"
     d="m 40.09165,12.739671 c 0.0014,-0.03404 0.0083,-0.04096 0.01765,-0.01765 0.0084,0.0211 0.0074,0.04629 -0.0023,0.056 -0.0097,0.0097 -0.01662,-0.0076 -0.01535,-0.03835 z"
     style="fill:#ff0000;stroke-width:0.0292186" />
  <path
     id="path564"
     d="m 43.026578,14.763264 c -0.09089,-0.152305 -0.184311,-0.347236 -0.207607,-0.433182 -0.06743,-0.248751 -0.09845,-1.218039 -0.09806,-3.063511 4.31e-4,-2.032437 0.02642,-2.7532889 0.105071,-2.9138791 0.05633,-0.1150313 0.237722,-0.2403738 0.349109,-0.241243 0.06076,-4.741e-4 0.06189,0.010814 0.08059,0.8103333 0.02013,0.8606325 -0.02076,6.0753098 -0.04785,6.1024028 -0.0088,0.0088 -0.09036,-0.108618 -0.181245,-0.260921 z"
     style="fill:#ff0000;stroke-width:0.0292186" />
  <path
     transform="matrix(1.0397553,0,0,1.0397553,-1.6424635,0)"
     id="path566"
     d=""
     style="fill:#0000ff;stroke-width:0.0281014" />
  <path
     id="path568"
     d="M 0.39289405,17.394188 V 0.57643831 H 0.68214254 0.97139103 V 17.394188 34.211938 H 0.68214254 0.39289405 Z"
     style="fill:#0000ff;stroke-width:0.0413212" />
  <path
     id="path570"
     d="M 0.39289405,39.311207 V 38.195533 H -0.35088866 -1.0946714 v -0.289248 -0.289249 h 0.74378274 0.74378271 v -1.694172 -1.694171 h 0.28924849 0.28924849 v 1.694171 1.694172 H 26.136033 51.300676 v 0.289249 0.289248 H 26.136033 0.97139103 v 1.115674 1.115674 H 0.68214254 0.39289405 Z"
     style="fill:#0000ff;stroke-width:0.0826425" />
</svg>
